<?xml version="1.0" encoding="UTF-8"?>
<svg xmlns="http://www.w3.org/2000/svg" width="256" height="256" viewBox="0 0 128 128" shape-rendering="geometricPrecision">
<rect width="128" height="128" fill="#f2ead8"/><defs><radialGradient id="own_1"><stop offset="0%" stop-color="#e2d7bd" stop-opacity="0.3"/><stop offset="100%" stop-color="#e2d7bd" stop-opacity="0"/></radialGradient></defs><circle cx="71.4" cy="41.1" r="42.0" fill="url(#own_1)"/><defs><radialGradient id="own_2"><stop offset="0%" stop-color="#fbf6ea" stop-opacity="0.34"/><stop offset="100%" stop-color="#fbf6ea" stop-opacity="0"/></radialGradient></defs><circle cx="101.6" cy="6.6" r="34.0" fill="url(#own_2)"/><line x1="30.6" y1="91.5" x2="30.8" y2="97.5" stroke="#c3b493" stroke-opacity="0.10" stroke-width="0.5"/><line x1="14.6" y1="3.7" x2="25.2" y2="4.5" stroke="#c3b493" stroke-opacity="0.10" stroke-width="0.5"/><line x1="120.0" y1="127.7" x2="126.8" y2="128.7" stroke="#c3b493" stroke-opacity="0.10" stroke-width="0.5"/><line x1="102.2" y1="28.5" x2="101.5" y2="40.6" stroke="#c3b493" stroke-opacity="0.10" stroke-width="0.5"/><line x1="63.2" y1="59.3" x2="64.7" y2="68.1" stroke="#c3b493" stroke-opacity="0.10" stroke-width="0.5"/><line x1="47.1" y1="1.6" x2="43.2" y2="2.5" stroke="#c3b493" stroke-opacity="0.10" stroke-width="0.5"/><line x1="41.8" y1="95.1" x2="47.2" y2="109.3" stroke="#c3b493" stroke-opacity="0.10" stroke-width="0.5"/><line x1="90.6" y1="56.1" x2="91.3" y2="64.9" stroke="#c3b493" stroke-opacity="0.10" stroke-width="0.5"/><line x1="11.2" y1="59.9" x2="14.7" y2="65.7" stroke="#c3b493" stroke-opacity="0.10" stroke-width="0.5"/><line x1="68.3" y1="56.7" x2="54.3" y2="57.1" stroke="#c3b493" stroke-opacity="0.10" stroke-width="0.5"/><line x1="98.5" y1="13.1" x2="109.0" y2="16.2" stroke="#c3b493" stroke-opacity="0.10" stroke-width="0.5"/><line x1="32.8" y1="87.7" x2="41.8" y2="89.7" stroke="#c3b493" stroke-opacity="0.10" stroke-width="0.5"/><line x1="118.0" y1="58.5" x2="128.5" y2="61.1" stroke="#c3b493" stroke-opacity="0.10" stroke-width="0.5"/><line x1="17.3" y1="55.9" x2="27.1" y2="60.5" stroke="#c3b493" stroke-opacity="0.10" stroke-width="0.5"/><line x1="28.2" y1="16.9" x2="33.3" y2="18.8" stroke="#c3b493" stroke-opacity="0.10" stroke-width="0.5"/><line x1="74.8" y1="118.3" x2="65.8" y2="125.4" stroke="#c3b493" stroke-opacity="0.10" stroke-width="0.5"/><line x1="106.9" y1="7.1" x2="93.5" y2="13.7" stroke="#c3b493" stroke-opacity="0.10" stroke-width="0.5"/><line x1="100.1" y1="26.8" x2="96.9" y2="33.7" stroke="#c3b493" stroke-opacity="0.10" stroke-width="0.5"/><line x1="1.1" y1="74.0" x2="10.3" y2="74.5" stroke="#c3b493" stroke-opacity="0.10" stroke-width="0.5"/><line x1="86.4" y1="13.2" x2="76.4" y2="21.3" stroke="#c3b493" stroke-opacity="0.10" stroke-width="0.5"/><line x1="61.1" y1="100.0" x2="68.7" y2="100.4" stroke="#c3b493" stroke-opacity="0.10" stroke-width="0.5"/><line x1="84.3" y1="27.5" x2="95.7" y2="29.1" stroke="#c3b493" stroke-opacity="0.10" stroke-width="0.5"/><line x1="41.5" y1="71.1" x2="34.5" y2="73.3" stroke="#c3b493" stroke-opacity="0.10" stroke-width="0.5"/><line x1="35.4" y1="89.2" x2="27.8" y2="90.2" stroke="#c3b493" stroke-opacity="0.10" stroke-width="0.5"/><line x1="104.7" y1="51.2" x2="102.1" y2="54.9" stroke="#c3b493" stroke-opacity="0.10" stroke-width="0.5"/><line x1="67.0" y1="109.9" x2="69.3" y2="116.0" stroke="#c3b493" stroke-opacity="0.10" stroke-width="0.5"/><rect x="30.8" y="66.7" width="0.9" height="0.9" fill="#a08f6d" fill-opacity="0.06"/><rect x="24.5" y="73.4" width="0.9" height="0.9" fill="#a08f6d" fill-opacity="0.11"/><rect x="65.1" y="53.5" width="0.9" height="0.9" fill="#a08f6d" fill-opacity="0.09"/><rect x="54.0" y="74.7" width="0.9" height="0.9" fill="#a08f6d" fill-opacity="0.08"/><rect x="46.7" y="14.5" width="0.9" height="0.9" fill="#a08f6d" fill-opacity="0.10"/><rect x="2.5" y="15.8" width="0.9" height="0.9" fill="#a08f6d" fill-opacity="0.10"/><rect x="118.2" y="5.8" width="0.9" height="0.9" fill="#a08f6d" fill-opacity="0.06"/><rect x="11.7" y="104.7" width="0.9" height="0.9" fill="#a08f6d" fill-opacity="0.12"/><rect x="41.6" y="41.2" width="0.9" height="0.9" fill="#a08f6d" fill-opacity="0.10"/><rect x="110.4" y="79.0" width="0.9" height="0.9" fill="#a08f6d" fill-opacity="0.09"/><rect x="83.8" y="98.2" width="0.9" height="0.9" fill="#a08f6d" fill-opacity="0.12"/><rect x="57.5" y="123.5" width="0.9" height="0.9" fill="#a08f6d" fill-opacity="0.11"/><rect x="94.0" y="57.9" width="0.9" height="0.9" fill="#a08f6d" fill-opacity="0.11"/><rect x="108.9" y="51.4" width="0.9" height="0.9" fill="#a08f6d" fill-opacity="0.08"/><rect x="84.1" y="42.2" width="0.9" height="0.9" fill="#a08f6d" fill-opacity="0.12"/><rect x="71.7" y="11.2" width="0.9" height="0.9" fill="#a08f6d" fill-opacity="0.05"/><rect x="71.8" y="55.5" width="0.9" height="0.9" fill="#a08f6d" fill-opacity="0.09"/><rect x="53.2" y="32.3" width="0.9" height="0.9" fill="#a08f6d" fill-opacity="0.09"/><rect x="87.8" y="26.7" width="0.9" height="0.9" fill="#a08f6d" fill-opacity="0.07"/><rect x="102.4" y="74.7" width="0.9" height="0.9" fill="#a08f6d" fill-opacity="0.10"/><rect x="57.3" y="9.3" width="0.9" height="0.9" fill="#a08f6d" fill-opacity="0.05"/><rect x="94.7" y="21.0" width="0.9" height="0.9" fill="#a08f6d" fill-opacity="0.06"/><rect x="36.3" y="100.0" width="0.9" height="0.9" fill="#a08f6d" fill-opacity="0.10"/><rect x="28.0" y="17.7" width="0.9" height="0.9" fill="#a08f6d" fill-opacity="0.06"/><rect x="52.9" y="25.7" width="0.9" height="0.9" fill="#a08f6d" fill-opacity="0.07"/><rect x="97.9" y="27.2" width="0.9" height="0.9" fill="#a08f6d" fill-opacity="0.05"/><rect x="107.1" y="55.0" width="0.9" height="0.9" fill="#a08f6d" fill-opacity="0.07"/><rect x="105.8" y="110.1" width="0.9" height="0.9" fill="#a08f6d" fill-opacity="0.09"/><rect x="20.0" y="111.0" width="0.9" height="0.9" fill="#a08f6d" fill-opacity="0.06"/><rect x="11.6" y="21.3" width="0.9" height="0.9" fill="#a08f6d" fill-opacity="0.10"/><rect x="65.2" y="38.6" width="0.9" height="0.9" fill="#a08f6d" fill-opacity="0.09"/><rect x="116.3" y="110.1" width="0.9" height="0.9" fill="#a08f6d" fill-opacity="0.10"/><rect x="63.2" y="56.5" width="0.9" height="0.9" fill="#a08f6d" fill-opacity="0.09"/><rect x="104.7" y="116.3" width="0.9" height="0.9" fill="#a08f6d" fill-opacity="0.07"/><rect x="85.3" y="106.7" width="0.9" height="0.9" fill="#a08f6d" fill-opacity="0.06"/><rect x="9.2" y="104.5" width="0.9" height="0.9" fill="#a08f6d" fill-opacity="0.10"/><rect x="26.9" y="104.5" width="0.9" height="0.9" fill="#a08f6d" fill-opacity="0.06"/><rect x="126.1" y="23.7" width="0.9" height="0.9" fill="#a08f6d" fill-opacity="0.11"/><rect x="28.4" y="35.8" width="0.9" height="0.9" fill="#a08f6d" fill-opacity="0.05"/><rect x="13.4" y="114.0" width="0.9" height="0.9" fill="#a08f6d" fill-opacity="0.10"/><rect x="80.1" y="14.3" width="0.9" height="0.9" fill="#a08f6d" fill-opacity="0.06"/><rect x="61.2" y="98.2" width="0.9" height="0.9" fill="#a08f6d" fill-opacity="0.07"/><rect x="84.8" y="51.1" width="0.9" height="0.9" fill="#a08f6d" fill-opacity="0.07"/><rect x="56.5" y="102.5" width="0.9" height="0.9" fill="#a08f6d" fill-opacity="0.10"/><rect x="74.1" y="2.4" width="0.9" height="0.9" fill="#a08f6d" fill-opacity="0.08"/><rect x="11.4" y="110.9" width="0.9" height="0.9" fill="#a08f6d" fill-opacity="0.09"/><rect x="116.7" y="127.1" width="0.9" height="0.9" fill="#a08f6d" fill-opacity="0.06"/><rect x="109.9" y="67.1" width="0.9" height="0.9" fill="#a08f6d" fill-opacity="0.11"/><rect x="67.7" y="76.2" width="0.9" height="0.9" fill="#a08f6d" fill-opacity="0.08"/><rect x="119.4" y="22.6" width="0.9" height="0.9" fill="#a08f6d" fill-opacity="0.09"/><rect x="77.1" y="125.5" width="0.9" height="0.9" fill="#a08f6d" fill-opacity="0.11"/><rect x="69.1" y="100.0" width="0.9" height="0.9" fill="#a08f6d" fill-opacity="0.11"/><rect x="79.9" y="117.0" width="0.9" height="0.9" fill="#a08f6d" fill-opacity="0.06"/><rect x="110.7" y="5.8" width="0.9" height="0.9" fill="#a08f6d" fill-opacity="0.07"/><rect x="94.3" y="121.9" width="0.9" height="0.9" fill="#a08f6d" fill-opacity="0.09"/><rect x="94.3" y="63.9" width="0.9" height="0.9" fill="#a08f6d" fill-opacity="0.06"/><rect x="88.7" y="70.2" width="0.9" height="0.9" fill="#a08f6d" fill-opacity="0.07"/><rect x="126.2" y="97.7" width="0.9" height="0.9" fill="#a08f6d" fill-opacity="0.07"/><rect x="28.8" y="14.2" width="0.9" height="0.9" fill="#a08f6d" fill-opacity="0.10"/><rect x="96.3" y="44.3" width="0.9" height="0.9" fill="#a08f6d" fill-opacity="0.11"/><rect x="101.7" y="113.9" width="0.9" height="0.9" fill="#a08f6d" fill-opacity="0.10"/><rect x="30.4" y="91.3" width="0.9" height="0.9" fill="#a08f6d" fill-opacity="0.11"/><rect x="101.1" y="18.4" width="0.9" height="0.9" fill="#a08f6d" fill-opacity="0.08"/><rect x="110.4" y="4.2" width="0.9" height="0.9" fill="#a08f6d" fill-opacity="0.09"/><rect x="75.8" y="116.3" width="0.9" height="0.9" fill="#a08f6d" fill-opacity="0.06"/><rect x="54.5" y="13.8" width="0.9" height="0.9" fill="#a08f6d" fill-opacity="0.07"/><rect x="100.8" y="44.9" width="0.9" height="0.9" fill="#a08f6d" fill-opacity="0.09"/><rect x="32.2" y="26.5" width="0.9" height="0.9" fill="#a08f6d" fill-opacity="0.06"/><rect x="33.9" y="32.4" width="0.9" height="0.9" fill="#a08f6d" fill-opacity="0.09"/><rect x="39.4" y="8.6" width="0.9" height="0.9" fill="#a08f6d" fill-opacity="0.08"/><rect x="102.8" y="49.4" width="0.9" height="0.9" fill="#a08f6d" fill-opacity="0.09"/><rect x="64.5" y="47.5" width="0.9" height="0.9" fill="#a08f6d" fill-opacity="0.08"/><rect x="58.6" y="32.7" width="0.9" height="0.9" fill="#a08f6d" fill-opacity="0.07"/><rect x="55.7" y="68.1" width="0.9" height="0.9" fill="#a08f6d" fill-opacity="0.08"/><rect x="53.5" y="74.4" width="0.9" height="0.9" fill="#a08f6d" fill-opacity="0.08"/><rect x="126.4" y="1.3" width="0.9" height="0.9" fill="#a08f6d" fill-opacity="0.06"/><rect x="122.4" y="60.0" width="0.9" height="0.9" fill="#a08f6d" fill-opacity="0.07"/><rect x="21.4" y="109.8" width="0.9" height="0.9" fill="#a08f6d" fill-opacity="0.12"/><rect x="121.4" y="25.8" width="0.9" height="0.9" fill="#a08f6d" fill-opacity="0.09"/><rect x="123.1" y="65.1" width="0.9" height="0.9" fill="#a08f6d" fill-opacity="0.09"/><rect x="72.3" y="109.4" width="0.9" height="0.9" fill="#a08f6d" fill-opacity="0.09"/><rect x="25.6" y="124.1" width="0.9" height="0.9" fill="#a08f6d" fill-opacity="0.08"/><rect x="78.8" y="86.0" width="0.9" height="0.9" fill="#a08f6d" fill-opacity="0.07"/><rect x="29.7" y="58.4" width="0.9" height="0.9" fill="#a08f6d" fill-opacity="0.05"/><rect x="66.3" y="103.6" width="0.9" height="0.9" fill="#a08f6d" fill-opacity="0.07"/><rect x="70.5" y="115.9" width="0.9" height="0.9" fill="#a08f6d" fill-opacity="0.08"/><rect x="35.1" y="12.0" width="0.9" height="0.9" fill="#a08f6d" fill-opacity="0.09"/><rect x="4.8" y="98.3" width="0.9" height="0.9" fill="#a08f6d" fill-opacity="0.10"/><rect x="121.5" y="30.5" width="0.9" height="0.9" fill="#a08f6d" fill-opacity="0.11"/><rect x="81.3" y="81.3" width="0.9" height="0.9" fill="#a08f6d" fill-opacity="0.10"/><defs><radialGradient id="own_3"><stop offset="15%" stop-color="#302a22" stop-opacity="0.22"/><stop offset="100%" stop-color="#302a22" stop-opacity="0"/></radialGradient></defs><ellipse cx="64.0" cy="108.0" rx="44.0" ry="10.0" fill="url(#own_3)"/><polygon points="16.0,74.0 70.0,78.0 70.0,74.0 18.0,68.0" fill="#dcd4c1" fill-opacity="0.95" /><polyline points="17.9,67.8 70.2,74.1" fill="none" stroke="#2b2621" stroke-width="1.67" stroke-opacity="0.552" stroke-linecap="round" stroke-linejoin="round"/><polyline points="17.6,68.1 70.1,74.3" fill="none" stroke="#2b2621" stroke-width="1.39" stroke-opacity="0.264" stroke-linecap="round" stroke-linejoin="round"/><polyline points="18.0,77.9 17.9,91.8 18.1,105.9" fill="none" stroke="#3f382e" stroke-width="2.20" stroke-opacity="0.506" stroke-linecap="round" stroke-linejoin="round"/><polyline points="17.8,77.9 18.0,92.1 18.1,106.2" fill="none" stroke="#3f382e" stroke-width="1.41" stroke-opacity="0.242" stroke-linecap="round" stroke-linejoin="round"/><polyline points="43.1,78.0 42.7,92.2 42.8,106.2" fill="none" stroke="#3f382e" stroke-width="2.15" stroke-opacity="0.506" stroke-linecap="round" stroke-linejoin="round"/><polyline points="42.9,77.7 42.5,92.2 42.9,105.8" fill="none" stroke="#3f382e" stroke-width="1.30" stroke-opacity="0.242" stroke-linecap="round" stroke-linejoin="round"/><polyline points="68.2,78.1 68.2,91.8 68.1,105.8" fill="none" stroke="#3f382e" stroke-width="2.05" stroke-opacity="0.506" stroke-linecap="round" stroke-linejoin="round"/><polyline points="68.2,78.0 68.1,92.1 68.3,105.8" fill="none" stroke="#3f382e" stroke-width="1.27" stroke-opacity="0.242" stroke-linecap="round" stroke-linejoin="round"/><circle cx="30.0" cy="96.0" r="7.0" fill="#c0a780" fill-opacity="0.95"/><circle cx="30.0" cy="96.0" r="3.5" fill="none" stroke="#b08a5e" stroke-opacity="0.5" stroke-width="0.8"/><polyline points="37.0,96.0 37.0,96.0" fill="none" stroke="#5b5343" stroke-width="0.56" stroke-opacity="0.092" stroke-linecap="round" stroke-linejoin="round"/><circle cx="44.0" cy="96.0" r="7.0" fill="#c0a780" fill-opacity="0.95"/><circle cx="44.0" cy="96.0" r="3.5" fill="none" stroke="#b08a5e" stroke-opacity="0.5" stroke-width="0.8"/><polyline points="51.0,96.0 51.0,96.0" fill="none" stroke="#5b5343" stroke-width="0.52" stroke-opacity="0.092" stroke-linecap="round" stroke-linejoin="round"/><circle cx="58.0" cy="96.0" r="7.0" fill="#c0a780" fill-opacity="0.95"/><circle cx="58.0" cy="96.0" r="3.5" fill="none" stroke="#b08a5e" stroke-opacity="0.5" stroke-width="0.8"/><polyline points="65.0,96.0 65.0,96.0" fill="none" stroke="#5b5343" stroke-width="0.47" stroke-opacity="0.092" stroke-linecap="round" stroke-linejoin="round"/><circle cx="37.0" cy="84.0" r="7.0" fill="#c0a780" fill-opacity="0.95"/><circle cx="37.0" cy="84.0" r="3.5" fill="none" stroke="#b08a5e" stroke-opacity="0.5" stroke-width="0.8"/><polyline points="44.0,84.0 44.0,84.0" fill="none" stroke="#5b5343" stroke-width="0.53" stroke-opacity="0.092" stroke-linecap="round" stroke-linejoin="round"/><circle cx="51.0" cy="84.0" r="7.0" fill="#c0a780" fill-opacity="0.95"/><circle cx="51.0" cy="84.0" r="3.5" fill="none" stroke="#b08a5e" stroke-opacity="0.5" stroke-width="0.8"/><polyline points="58.0,84.0 58.0,84.0" fill="none" stroke="#5b5343" stroke-width="0.53" stroke-opacity="0.092" stroke-linecap="round" stroke-linejoin="round"/><polyline points="23.1,102.1 64.8,102.2" fill="none" stroke="#3f382e" stroke-width="1.24" stroke-opacity="0.460" stroke-linecap="round" stroke-linejoin="round"/><polyline points="80.0,105.8 90.2,92.1" fill="none" stroke="#b08a5e" stroke-width="1.41" stroke-opacity="0.598" stroke-linecap="round" stroke-linejoin="round"/><polyline points="103.9,106.0 94.0,91.9" fill="none" stroke="#b08a5e" stroke-width="1.63" stroke-opacity="0.598" stroke-linecap="round" stroke-linejoin="round"/><polygon points="82.0,92.0 102.0,92.0 102.0,96.0 82.0,96.0" fill="#c0a780" fill-opacity="0.9" /><polyline points="82.0,91.9 102.2,92.0" fill="none" stroke="#3f382e" stroke-width="1.05" stroke-opacity="0.460" stroke-linecap="round" stroke-linejoin="round"/><polyline points="108.0,105.9 114.1,94.1" fill="none" stroke="#b08a5e" stroke-width="1.33" stroke-opacity="0.552" stroke-linecap="round" stroke-linejoin="round"/><polygon points="112.0,94.0 118.0,90.0 118.0,96.0 112.0,97.0" fill="#8b8578" fill-opacity="0.9" /><rect x="106.0" y="110.0" width="10.0" height="10.0" fill="#b2452f" fill-opacity="0.78" rx="1"/><line x1="106.0" y1="115.0" x2="116.0" y2="115.0" stroke="#f2ead8" stroke-opacity="0.85" stroke-width="1"/><line x1="111.0" y1="110.0" x2="111.0" y2="120.0" stroke="#f2ead8" stroke-opacity="0.85" stroke-width="1"/>
</svg>
