<?xml version="1.0" encoding="UTF-8"?>
<svg xmlns="http://www.w3.org/2000/svg" width="256" height="256" viewBox="0 0 128 128" shape-rendering="geometricPrecision">
<rect width="128" height="128" fill="#f2ead8"/><defs><radialGradient id="own_1"><stop offset="0%" stop-color="#e2d7bd" stop-opacity="0.3"/><stop offset="100%" stop-color="#e2d7bd" stop-opacity="0"/></radialGradient></defs><circle cx="37.7" cy="57.4" r="42.0" fill="url(#own_1)"/><defs><radialGradient id="own_2"><stop offset="0%" stop-color="#fbf6ea" stop-opacity="0.34"/><stop offset="100%" stop-color="#fbf6ea" stop-opacity="0"/></radialGradient></defs><circle cx="6.1" cy="44.0" r="34.0" fill="url(#own_2)"/><line x1="32.0" y1="50.1" x2="23.2" y2="53.7" stroke="#c3b493" stroke-opacity="0.10" stroke-width="0.5"/><line x1="85.5" y1="44.1" x2="81.8" y2="46.7" stroke="#c3b493" stroke-opacity="0.10" stroke-width="0.5"/><line x1="121.0" y1="115.0" x2="135.5" y2="120.4" stroke="#c3b493" stroke-opacity="0.10" stroke-width="0.5"/><line x1="103.3" y1="69.8" x2="89.8" y2="74.1" stroke="#c3b493" stroke-opacity="0.10" stroke-width="0.5"/><line x1="121.5" y1="22.1" x2="111.3" y2="23.4" stroke="#c3b493" stroke-opacity="0.10" stroke-width="0.5"/><line x1="87.9" y1="73.1" x2="81.3" y2="85.0" stroke="#c3b493" stroke-opacity="0.10" stroke-width="0.5"/><line x1="22.5" y1="42.2" x2="14.7" y2="55.1" stroke="#c3b493" stroke-opacity="0.10" stroke-width="0.5"/><line x1="106.6" y1="5.1" x2="93.2" y2="8.2" stroke="#c3b493" stroke-opacity="0.10" stroke-width="0.5"/><line x1="81.4" y1="82.6" x2="86.3" y2="88.4" stroke="#c3b493" stroke-opacity="0.10" stroke-width="0.5"/><line x1="36.1" y1="54.8" x2="42.4" y2="61.2" stroke="#c3b493" stroke-opacity="0.10" stroke-width="0.5"/><line x1="126.1" y1="66.1" x2="140.5" y2="72.0" stroke="#c3b493" stroke-opacity="0.10" stroke-width="0.5"/><line x1="19.1" y1="8.8" x2="21.1" y2="20.4" stroke="#c3b493" stroke-opacity="0.10" stroke-width="0.5"/><line x1="21.4" y1="42.4" x2="21.1" y2="49.7" stroke="#c3b493" stroke-opacity="0.10" stroke-width="0.5"/><line x1="126.8" y1="65.7" x2="124.5" y2="69.9" stroke="#c3b493" stroke-opacity="0.10" stroke-width="0.5"/><line x1="118.8" y1="95.6" x2="121.4" y2="99.2" stroke="#c3b493" stroke-opacity="0.10" stroke-width="0.5"/><line x1="59.7" y1="44.7" x2="59.6" y2="51.5" stroke="#c3b493" stroke-opacity="0.10" stroke-width="0.5"/><line x1="37.5" y1="96.9" x2="43.1" y2="103.6" stroke="#c3b493" stroke-opacity="0.10" stroke-width="0.5"/><line x1="108.3" y1="101.4" x2="109.7" y2="105.3" stroke="#c3b493" stroke-opacity="0.10" stroke-width="0.5"/><line x1="68.2" y1="121.0" x2="74.4" y2="135.3" stroke="#c3b493" stroke-opacity="0.10" stroke-width="0.5"/><line x1="14.4" y1="109.5" x2="7.7" y2="111.4" stroke="#c3b493" stroke-opacity="0.10" stroke-width="0.5"/><line x1="122.0" y1="42.5" x2="118.2" y2="44.3" stroke="#c3b493" stroke-opacity="0.10" stroke-width="0.5"/><line x1="27.1" y1="106.7" x2="14.9" y2="108.2" stroke="#c3b493" stroke-opacity="0.10" stroke-width="0.5"/><line x1="28.5" y1="3.7" x2="37.3" y2="4.3" stroke="#c3b493" stroke-opacity="0.10" stroke-width="0.5"/><line x1="53.1" y1="121.2" x2="47.8" y2="127.0" stroke="#c3b493" stroke-opacity="0.10" stroke-width="0.5"/><line x1="96.5" y1="52.1" x2="84.9" y2="53.4" stroke="#c3b493" stroke-opacity="0.10" stroke-width="0.5"/><line x1="70.6" y1="56.0" x2="80.8" y2="56.3" stroke="#c3b493" stroke-opacity="0.10" stroke-width="0.5"/><rect x="78.9" y="113.0" width="0.9" height="0.9" fill="#a08f6d" fill-opacity="0.12"/><rect x="1.8" y="97.3" width="0.9" height="0.9" fill="#a08f6d" fill-opacity="0.07"/><rect x="35.4" y="2.8" width="0.9" height="0.9" fill="#a08f6d" fill-opacity="0.07"/><rect x="22.5" y="119.2" width="0.9" height="0.9" fill="#a08f6d" fill-opacity="0.09"/><rect x="117.0" y="73.6" width="0.9" height="0.9" fill="#a08f6d" fill-opacity="0.11"/><rect x="11.9" y="70.3" width="0.9" height="0.9" fill="#a08f6d" fill-opacity="0.11"/><rect x="15.2" y="109.5" width="0.9" height="0.9" fill="#a08f6d" fill-opacity="0.10"/><rect x="105.8" y="75.0" width="0.9" height="0.9" fill="#a08f6d" fill-opacity="0.09"/><rect x="10.1" y="12.7" width="0.9" height="0.9" fill="#a08f6d" fill-opacity="0.07"/><rect x="90.5" y="126.1" width="0.9" height="0.9" fill="#a08f6d" fill-opacity="0.07"/><rect x="43.4" y="118.5" width="0.9" height="0.9" fill="#a08f6d" fill-opacity="0.08"/><rect x="106.8" y="77.0" width="0.9" height="0.9" fill="#a08f6d" fill-opacity="0.11"/><rect x="31.3" y="41.5" width="0.9" height="0.9" fill="#a08f6d" fill-opacity="0.05"/><rect x="125.5" y="88.9" width="0.9" height="0.9" fill="#a08f6d" fill-opacity="0.10"/><rect x="101.4" y="56.4" width="0.9" height="0.9" fill="#a08f6d" fill-opacity="0.05"/><rect x="76.6" y="69.8" width="0.9" height="0.9" fill="#a08f6d" fill-opacity="0.11"/><rect x="69.1" y="25.8" width="0.9" height="0.9" fill="#a08f6d" fill-opacity="0.09"/><rect x="46.1" y="62.2" width="0.9" height="0.9" fill="#a08f6d" fill-opacity="0.07"/><rect x="82.4" y="100.2" width="0.9" height="0.9" fill="#a08f6d" fill-opacity="0.08"/><rect x="119.0" y="28.0" width="0.9" height="0.9" fill="#a08f6d" fill-opacity="0.11"/><rect x="112.8" y="41.4" width="0.9" height="0.9" fill="#a08f6d" fill-opacity="0.06"/><rect x="42.5" y="87.6" width="0.9" height="0.9" fill="#a08f6d" fill-opacity="0.05"/><rect x="90.0" y="71.5" width="0.9" height="0.9" fill="#a08f6d" fill-opacity="0.07"/><rect x="53.7" y="54.3" width="0.9" height="0.9" fill="#a08f6d" fill-opacity="0.05"/><rect x="104.3" y="106.6" width="0.9" height="0.9" fill="#a08f6d" fill-opacity="0.08"/><rect x="116.2" y="52.0" width="0.9" height="0.9" fill="#a08f6d" fill-opacity="0.09"/><rect x="64.7" y="73.9" width="0.9" height="0.9" fill="#a08f6d" fill-opacity="0.07"/><rect x="99.6" y="92.4" width="0.9" height="0.9" fill="#a08f6d" fill-opacity="0.09"/><rect x="87.8" y="30.4" width="0.9" height="0.9" fill="#a08f6d" fill-opacity="0.06"/><rect x="19.0" y="112.2" width="0.9" height="0.9" fill="#a08f6d" fill-opacity="0.11"/><rect x="116.3" y="9.8" width="0.9" height="0.9" fill="#a08f6d" fill-opacity="0.08"/><rect x="25.8" y="21.9" width="0.9" height="0.9" fill="#a08f6d" fill-opacity="0.11"/><rect x="110.8" y="11.0" width="0.9" height="0.9" fill="#a08f6d" fill-opacity="0.08"/><rect x="83.5" y="38.7" width="0.9" height="0.9" fill="#a08f6d" fill-opacity="0.12"/><rect x="32.0" y="57.9" width="0.9" height="0.9" fill="#a08f6d" fill-opacity="0.09"/><rect x="13.7" y="48.5" width="0.9" height="0.9" fill="#a08f6d" fill-opacity="0.07"/><rect x="68.8" y="66.9" width="0.9" height="0.9" fill="#a08f6d" fill-opacity="0.08"/><rect x="118.0" y="75.4" width="0.9" height="0.9" fill="#a08f6d" fill-opacity="0.09"/><rect x="95.1" y="49.8" width="0.9" height="0.9" fill="#a08f6d" fill-opacity="0.11"/><rect x="63.5" y="50.4" width="0.9" height="0.9" fill="#a08f6d" fill-opacity="0.07"/><rect x="44.6" y="126.9" width="0.9" height="0.9" fill="#a08f6d" fill-opacity="0.07"/><rect x="85.4" y="105.0" width="0.9" height="0.9" fill="#a08f6d" fill-opacity="0.10"/><rect x="63.2" y="39.7" width="0.9" height="0.9" fill="#a08f6d" fill-opacity="0.12"/><rect x="11.8" y="61.2" width="0.9" height="0.9" fill="#a08f6d" fill-opacity="0.10"/><rect x="120.7" y="6.9" width="0.9" height="0.9" fill="#a08f6d" fill-opacity="0.11"/><rect x="62.9" y="63.2" width="0.9" height="0.9" fill="#a08f6d" fill-opacity="0.06"/><rect x="89.2" y="103.7" width="0.9" height="0.9" fill="#a08f6d" fill-opacity="0.11"/><rect x="66.8" y="27.0" width="0.9" height="0.9" fill="#a08f6d" fill-opacity="0.07"/><rect x="79.6" y="4.9" width="0.9" height="0.9" fill="#a08f6d" fill-opacity="0.06"/><rect x="41.5" y="28.1" width="0.9" height="0.9" fill="#a08f6d" fill-opacity="0.10"/><rect x="64.4" y="53.9" width="0.9" height="0.9" fill="#a08f6d" fill-opacity="0.11"/><rect x="21.1" y="67.0" width="0.9" height="0.9" fill="#a08f6d" fill-opacity="0.11"/><rect x="35.8" y="121.9" width="0.9" height="0.9" fill="#a08f6d" fill-opacity="0.09"/><rect x="116.7" y="123.9" width="0.9" height="0.9" fill="#a08f6d" fill-opacity="0.10"/><rect x="67.6" y="11.3" width="0.9" height="0.9" fill="#a08f6d" fill-opacity="0.09"/><rect x="33.9" y="14.1" width="0.9" height="0.9" fill="#a08f6d" fill-opacity="0.05"/><rect x="94.1" y="109.3" width="0.9" height="0.9" fill="#a08f6d" fill-opacity="0.08"/><rect x="116.0" y="90.2" width="0.9" height="0.9" fill="#a08f6d" fill-opacity="0.09"/><rect x="68.0" y="94.1" width="0.9" height="0.9" fill="#a08f6d" fill-opacity="0.07"/><rect x="60.6" y="3.8" width="0.9" height="0.9" fill="#a08f6d" fill-opacity="0.12"/><rect x="76.8" y="124.0" width="0.9" height="0.9" fill="#a08f6d" fill-opacity="0.11"/><rect x="127.6" y="45.0" width="0.9" height="0.9" fill="#a08f6d" fill-opacity="0.06"/><rect x="2.3" y="50.2" width="0.9" height="0.9" fill="#a08f6d" fill-opacity="0.10"/><rect x="23.4" y="114.7" width="0.9" height="0.9" fill="#a08f6d" fill-opacity="0.10"/><rect x="96.2" y="44.9" width="0.9" height="0.9" fill="#a08f6d" fill-opacity="0.05"/><rect x="48.6" y="95.1" width="0.9" height="0.9" fill="#a08f6d" fill-opacity="0.08"/><rect x="25.6" y="54.6" width="0.9" height="0.9" fill="#a08f6d" fill-opacity="0.08"/><rect x="26.0" y="6.0" width="0.9" height="0.9" fill="#a08f6d" fill-opacity="0.07"/><rect x="11.3" y="77.9" width="0.9" height="0.9" fill="#a08f6d" fill-opacity="0.06"/><rect x="6.5" y="45.0" width="0.9" height="0.9" fill="#a08f6d" fill-opacity="0.06"/><rect x="81.2" y="71.8" width="0.9" height="0.9" fill="#a08f6d" fill-opacity="0.05"/><rect x="74.9" y="23.6" width="0.9" height="0.9" fill="#a08f6d" fill-opacity="0.07"/><rect x="121.5" y="53.8" width="0.9" height="0.9" fill="#a08f6d" fill-opacity="0.11"/><rect x="52.2" y="57.2" width="0.9" height="0.9" fill="#a08f6d" fill-opacity="0.06"/><rect x="77.1" y="20.8" width="0.9" height="0.9" fill="#a08f6d" fill-opacity="0.06"/><rect x="44.2" y="0.6" width="0.9" height="0.9" fill="#a08f6d" fill-opacity="0.08"/><rect x="94.6" y="0.2" width="0.9" height="0.9" fill="#a08f6d" fill-opacity="0.09"/><rect x="13.8" y="44.5" width="0.9" height="0.9" fill="#a08f6d" fill-opacity="0.06"/><rect x="4.1" y="107.6" width="0.9" height="0.9" fill="#a08f6d" fill-opacity="0.07"/><rect x="106.5" y="89.6" width="0.9" height="0.9" fill="#a08f6d" fill-opacity="0.05"/><rect x="40.9" y="5.5" width="0.9" height="0.9" fill="#a08f6d" fill-opacity="0.05"/><rect x="20.4" y="27.8" width="0.9" height="0.9" fill="#a08f6d" fill-opacity="0.05"/><rect x="41.2" y="92.4" width="0.9" height="0.9" fill="#a08f6d" fill-opacity="0.08"/><rect x="62.5" y="29.9" width="0.9" height="0.9" fill="#a08f6d" fill-opacity="0.12"/><rect x="80.9" y="124.6" width="0.9" height="0.9" fill="#a08f6d" fill-opacity="0.07"/><rect x="74.7" y="90.1" width="0.9" height="0.9" fill="#a08f6d" fill-opacity="0.12"/><rect x="97.8" y="15.2" width="0.9" height="0.9" fill="#a08f6d" fill-opacity="0.12"/><rect x="80.8" y="49.4" width="0.9" height="0.9" fill="#a08f6d" fill-opacity="0.11"/><rect x="43.6" y="18.3" width="0.9" height="0.9" fill="#a08f6d" fill-opacity="0.09"/><rect x="8.8" y="1.7" width="0.9" height="0.9" fill="#a08f6d" fill-opacity="0.08"/><defs><radialGradient id="own_3"><stop offset="15%" stop-color="#302a22" stop-opacity="0.2"/><stop offset="100%" stop-color="#302a22" stop-opacity="0"/></radialGradient></defs><ellipse cx="64.0" cy="108.0" rx="42.0" ry="10.0" fill="url(#own_3)"/><defs><radialGradient id="own_4"><stop offset="0%" stop-color="#6f6552" stop-opacity="0.08"/><stop offset="100%" stop-color="#6f6552" stop-opacity="0"/></radialGradient></defs><circle cx="64.0" cy="106.0" r="40.0" fill="url(#own_4)"/><path d="M 20 106 C 22 84 38 72 64 72 C 90 72 106 84 108 106 Z" fill="#b0996f" fill-opacity="0.95" /><path d="M 28.0 76.0 Q 64 72.0 100.0 76.0" fill="none" fill-opacity="0" stroke="#5b5343" stroke-opacity="0.20" stroke-width="1.0"/><path d="M 28.4 82.2 Q 64 78.2 99.6 82.2" fill="none" fill-opacity="0" stroke="#5b5343" stroke-opacity="0.24" stroke-width="1.0"/><path d="M 29.5 88.4 Q 64 84.4 98.5 88.4" fill="none" fill-opacity="0" stroke="#5b5343" stroke-opacity="0.18" stroke-width="1.0"/><path d="M 31.5 94.6 Q 64 90.6 96.5 94.6" fill="none" fill-opacity="0" stroke="#5b5343" stroke-opacity="0.23" stroke-width="1.0"/><path d="M 34.6 100.8 Q 64 96.8 93.4 100.8" fill="none" fill-opacity="0" stroke="#5b5343" stroke-opacity="0.22" stroke-width="1.0"/><polyline points="20.3,106.3 25.7,86.3 43.8,73.7 64.1,72.3" fill="none" stroke="#2b2621" stroke-width="1.49" stroke-opacity="0.460" stroke-linecap="round" stroke-linejoin="round"/><polyline points="19.7,105.6 26.4,86.1 43.9,73.9 63.7,71.6" fill="none" stroke="#2b2621" stroke-width="0.88" stroke-opacity="0.220" stroke-linecap="round" stroke-linejoin="round"/><polyline points="107.9,105.7 102.1,86.1 83.7,73.9 63.7,71.7" fill="none" stroke="#2b2621" stroke-width="1.60" stroke-opacity="0.460" stroke-linecap="round" stroke-linejoin="round"/><polyline points="107.4,105.4 101.7,85.5 84.4,73.6 63.7,71.6" fill="none" stroke="#2b2621" stroke-width="1.24" stroke-opacity="0.220" stroke-linecap="round" stroke-linejoin="round"/><defs><radialGradient id="own_5"><stop offset="0%" stop-color="#837a68" stop-opacity="0.28"/><stop offset="100%" stop-color="#837a68" stop-opacity="0"/></radialGradient></defs><circle cx="62.6" cy="70.0" r="6.5" fill="url(#own_5)"/><defs><radialGradient id="own_6"><stop offset="0%" stop-color="#837a68" stop-opacity="0.25200000000000006"/><stop offset="100%" stop-color="#837a68" stop-opacity="0"/></radialGradient></defs><circle cx="59.9" cy="65.0" r="5.6" fill="url(#own_6)"/><defs><radialGradient id="own_7"><stop offset="0%" stop-color="#837a68" stop-opacity="0.22400000000000003"/><stop offset="100%" stop-color="#837a68" stop-opacity="0"/></radialGradient></defs><circle cx="66.0" cy="60.0" r="5.5" fill="url(#own_7)"/><defs><radialGradient id="own_8"><stop offset="0%" stop-color="#837a68" stop-opacity="0.196"/><stop offset="100%" stop-color="#837a68" stop-opacity="0"/></radialGradient></defs><circle cx="61.6" cy="55.0" r="7.0" fill="url(#own_8)"/><defs><radialGradient id="own_9"><stop offset="0%" stop-color="#837a68" stop-opacity="0.16800000000000004"/><stop offset="100%" stop-color="#837a68" stop-opacity="0"/></radialGradient></defs><circle cx="64.0" cy="50.0" r="7.4" fill="url(#own_9)"/><defs><radialGradient id="own_10"><stop offset="0%" stop-color="#837a68" stop-opacity="0.14"/><stop offset="100%" stop-color="#837a68" stop-opacity="0"/></radialGradient></defs><circle cx="63.2" cy="45.0" r="5.3" fill="url(#own_10)"/><defs><radialGradient id="own_11"><stop offset="0%" stop-color="#837a68" stop-opacity="0.2"/><stop offset="100%" stop-color="#837a68" stop-opacity="0"/></radialGradient></defs><circle cx="67.6" cy="72.0" r="3.8" fill="url(#own_11)"/><defs><radialGradient id="own_12"><stop offset="0%" stop-color="#837a68" stop-opacity="0.16000000000000003"/><stop offset="100%" stop-color="#837a68" stop-opacity="0"/></radialGradient></defs><circle cx="65.7" cy="66.7" r="3.2" fill="url(#own_12)"/><defs><radialGradient id="own_13"><stop offset="0%" stop-color="#837a68" stop-opacity="0.12000000000000002"/><stop offset="100%" stop-color="#837a68" stop-opacity="0"/></radialGradient></defs><circle cx="65.8" cy="61.3" r="2.6" fill="url(#own_13)"/><path d="M 56 106 L 57 96 Q 64 92 71 96 L 72 106 Z" fill="#5b4b38" fill-opacity="0.85" /><polyline points="55.8,105.9 57.1,95.9 64.1,93.1 71.0,96.2 71.9,105.9" fill="none" stroke="#3f382e" stroke-width="1.41" stroke-opacity="0.460" stroke-linecap="round" stroke-linejoin="round"/><polyline points="7.8,106.0 20.9,97.1" fill="none" stroke="#8a6a46" stroke-width="1.89" stroke-opacity="0.570" stroke-linecap="round" stroke-linejoin="round"/><polyline points="11.1,105.6 24.1,96.5" fill="none" stroke="#8a6a46" stroke-width="1.53" stroke-opacity="0.570" stroke-linecap="round" stroke-linejoin="round"/><polyline points="14.0,104.9 26.9,95.7" fill="none" stroke="#8a6a46" stroke-width="2.08" stroke-opacity="0.570" stroke-linecap="round" stroke-linejoin="round"/><polyline points="17.1,104.2 30.1,95.4" fill="none" stroke="#8a6a46" stroke-width="1.57" stroke-opacity="0.570" stroke-linecap="round" stroke-linejoin="round"/><polyline points="20.2,103.6 33.0,94.8" fill="none" stroke="#8a6a46" stroke-width="1.73" stroke-opacity="0.570" stroke-linecap="round" stroke-linejoin="round"/><polyline points="22.9,103.2 35.8,94.3" fill="none" stroke="#8a6a46" stroke-width="1.61" stroke-opacity="0.570" stroke-linecap="round" stroke-linejoin="round"/><polyline points="25.9,102.5 39.0,93.6" fill="none" stroke="#8a6a46" stroke-width="2.02" stroke-opacity="0.570" stroke-linecap="round" stroke-linejoin="round"/><polyline points="29.1,102.3 41.9,93.2" fill="none" stroke="#8a6a46" stroke-width="1.60" stroke-opacity="0.570" stroke-linecap="round" stroke-linejoin="round"/><polyline points="8.2,106.0 8.9,96.0" fill="none" stroke="#5b5343" stroke-width="0.98" stroke-opacity="0.368" stroke-linecap="round" stroke-linejoin="round"/><circle cx="20.3" cy="101.6" r="0.9" fill="#3f382e" fill-opacity="0.39"/><circle cx="18.0" cy="97.0" r="1.9" fill="#3f382e" fill-opacity="0.46"/><circle cx="21.1" cy="99.5" r="0.8" fill="#3f382e" fill-opacity="0.48"/><circle cx="19.3" cy="98.3" r="1.7" fill="#3f382e" fill-opacity="0.43"/><circle cx="19.8" cy="99.6" r="0.7" fill="#3f382e" fill-opacity="0.32"/><rect x="106.0" y="110.0" width="10.0" height="10.0" fill="#b2452f" fill-opacity="0.78" rx="1"/><line x1="106.0" y1="115.0" x2="116.0" y2="115.0" stroke="#f2ead8" stroke-opacity="0.85" stroke-width="1"/><line x1="111.0" y1="110.0" x2="111.0" y2="120.0" stroke="#f2ead8" stroke-opacity="0.85" stroke-width="1"/>
</svg>
