<?xml version="1.0" encoding="UTF-8"?>
<svg xmlns="http://www.w3.org/2000/svg" width="256" height="256" viewBox="0 0 128 128" shape-rendering="geometricPrecision">
<rect width="128" height="128" fill="#f2ead8"/><defs><radialGradient id="own_1"><stop offset="0%" stop-color="#e2d7bd" stop-opacity="0.3"/><stop offset="100%" stop-color="#e2d7bd" stop-opacity="0"/></radialGradient></defs><circle cx="95.8" cy="73.2" r="42.0" fill="url(#own_1)"/><defs><radialGradient id="own_2"><stop offset="0%" stop-color="#fbf6ea" stop-opacity="0.34"/><stop offset="100%" stop-color="#fbf6ea" stop-opacity="0"/></radialGradient></defs><circle cx="62.4" cy="35.5" r="34.0" fill="url(#own_2)"/><line x1="112.4" y1="3.7" x2="120.9" y2="12.6" stroke="#c3b493" stroke-opacity="0.10" stroke-width="0.5"/><line x1="58.6" y1="105.5" x2="55.7" y2="114.9" stroke="#c3b493" stroke-opacity="0.10" stroke-width="0.5"/><line x1="104.4" y1="12.8" x2="90.3" y2="18.5" stroke="#c3b493" stroke-opacity="0.10" stroke-width="0.5"/><line x1="42.6" y1="68.7" x2="54.4" y2="76.5" stroke="#c3b493" stroke-opacity="0.10" stroke-width="0.5"/><line x1="119.2" y1="19.2" x2="123.0" y2="22.2" stroke="#c3b493" stroke-opacity="0.10" stroke-width="0.5"/><line x1="55.2" y1="111.0" x2="47.4" y2="116.4" stroke="#c3b493" stroke-opacity="0.10" stroke-width="0.5"/><line x1="17.2" y1="91.3" x2="10.6" y2="92.2" stroke="#c3b493" stroke-opacity="0.10" stroke-width="0.5"/><line x1="109.0" y1="95.0" x2="108.4" y2="103.4" stroke="#c3b493" stroke-opacity="0.10" stroke-width="0.5"/><line x1="2.5" y1="55.8" x2="-3.2" y2="59.0" stroke="#c3b493" stroke-opacity="0.10" stroke-width="0.5"/><line x1="76.4" y1="29.1" x2="81.8" y2="41.3" stroke="#c3b493" stroke-opacity="0.10" stroke-width="0.5"/><line x1="59.4" y1="125.3" x2="68.1" y2="135.5" stroke="#c3b493" stroke-opacity="0.10" stroke-width="0.5"/><line x1="38.2" y1="89.2" x2="45.8" y2="90.6" stroke="#c3b493" stroke-opacity="0.10" stroke-width="0.5"/><line x1="42.7" y1="106.2" x2="45.9" y2="116.8" stroke="#c3b493" stroke-opacity="0.10" stroke-width="0.5"/><line x1="40.9" y1="29.6" x2="41.5" y2="38.2" stroke="#c3b493" stroke-opacity="0.10" stroke-width="0.5"/><line x1="39.3" y1="15.5" x2="46.6" y2="17.1" stroke="#c3b493" stroke-opacity="0.10" stroke-width="0.5"/><line x1="49.1" y1="108.5" x2="53.4" y2="116.7" stroke="#c3b493" stroke-opacity="0.10" stroke-width="0.5"/><line x1="38.5" y1="52.6" x2="45.5" y2="55.3" stroke="#c3b493" stroke-opacity="0.10" stroke-width="0.5"/><line x1="36.8" y1="0.6" x2="23.3" y2="6.6" stroke="#c3b493" stroke-opacity="0.10" stroke-width="0.5"/><line x1="107.1" y1="51.7" x2="94.8" y2="54.1" stroke="#c3b493" stroke-opacity="0.10" stroke-width="0.5"/><line x1="73.8" y1="67.0" x2="82.0" y2="78.1" stroke="#c3b493" stroke-opacity="0.10" stroke-width="0.5"/><line x1="78.0" y1="93.1" x2="81.8" y2="95.6" stroke="#c3b493" stroke-opacity="0.10" stroke-width="0.5"/><line x1="76.0" y1="28.4" x2="71.1" y2="37.7" stroke="#c3b493" stroke-opacity="0.10" stroke-width="0.5"/><line x1="39.1" y1="74.1" x2="46.2" y2="83.2" stroke="#c3b493" stroke-opacity="0.10" stroke-width="0.5"/><line x1="112.6" y1="106.3" x2="105.7" y2="115.1" stroke="#c3b493" stroke-opacity="0.10" stroke-width="0.5"/><line x1="116.5" y1="3.4" x2="119.0" y2="7.5" stroke="#c3b493" stroke-opacity="0.10" stroke-width="0.5"/><line x1="4.9" y1="111.2" x2="8.5" y2="115.9" stroke="#c3b493" stroke-opacity="0.10" stroke-width="0.5"/><rect x="6.4" y="100.3" width="0.9" height="0.9" fill="#a08f6d" fill-opacity="0.08"/><rect x="96.6" y="98.4" width="0.9" height="0.9" fill="#a08f6d" fill-opacity="0.09"/><rect x="11.9" y="123.1" width="0.9" height="0.9" fill="#a08f6d" fill-opacity="0.06"/><rect x="46.2" y="37.0" width="0.9" height="0.9" fill="#a08f6d" fill-opacity="0.08"/><rect x="3.9" y="124.5" width="0.9" height="0.9" fill="#a08f6d" fill-opacity="0.08"/><rect x="26.0" y="124.1" width="0.9" height="0.9" fill="#a08f6d" fill-opacity="0.06"/><rect x="38.4" y="77.4" width="0.9" height="0.9" fill="#a08f6d" fill-opacity="0.11"/><rect x="61.8" y="29.5" width="0.9" height="0.9" fill="#a08f6d" fill-opacity="0.11"/><rect x="69.4" y="15.3" width="0.9" height="0.9" fill="#a08f6d" fill-opacity="0.07"/><rect x="38.5" y="79.5" width="0.9" height="0.9" fill="#a08f6d" fill-opacity="0.09"/><rect x="103.8" y="29.0" width="0.9" height="0.9" fill="#a08f6d" fill-opacity="0.05"/><rect x="91.5" y="104.0" width="0.9" height="0.9" fill="#a08f6d" fill-opacity="0.10"/><rect x="87.1" y="94.5" width="0.9" height="0.9" fill="#a08f6d" fill-opacity="0.07"/><rect x="12.6" y="32.6" width="0.9" height="0.9" fill="#a08f6d" fill-opacity="0.10"/><rect x="30.1" y="125.9" width="0.9" height="0.9" fill="#a08f6d" fill-opacity="0.10"/><rect x="41.7" y="107.5" width="0.9" height="0.9" fill="#a08f6d" fill-opacity="0.07"/><rect x="90.5" y="125.4" width="0.9" height="0.9" fill="#a08f6d" fill-opacity="0.09"/><rect x="32.0" y="60.8" width="0.9" height="0.9" fill="#a08f6d" fill-opacity="0.11"/><rect x="89.3" y="98.5" width="0.9" height="0.9" fill="#a08f6d" fill-opacity="0.09"/><rect x="66.1" y="121.3" width="0.9" height="0.9" fill="#a08f6d" fill-opacity="0.07"/><rect x="52.7" y="118.6" width="0.9" height="0.9" fill="#a08f6d" fill-opacity="0.08"/><rect x="57.2" y="92.8" width="0.9" height="0.9" fill="#a08f6d" fill-opacity="0.09"/><rect x="125.7" y="124.3" width="0.9" height="0.9" fill="#a08f6d" fill-opacity="0.11"/><rect x="124.0" y="53.2" width="0.9" height="0.9" fill="#a08f6d" fill-opacity="0.12"/><rect x="66.0" y="25.7" width="0.9" height="0.9" fill="#a08f6d" fill-opacity="0.09"/><rect x="58.5" y="99.0" width="0.9" height="0.9" fill="#a08f6d" fill-opacity="0.09"/><rect x="77.7" y="107.8" width="0.9" height="0.9" fill="#a08f6d" fill-opacity="0.07"/><rect x="30.7" y="102.8" width="0.9" height="0.9" fill="#a08f6d" fill-opacity="0.06"/><rect x="110.8" y="51.7" width="0.9" height="0.9" fill="#a08f6d" fill-opacity="0.08"/><rect x="37.2" y="51.6" width="0.9" height="0.9" fill="#a08f6d" fill-opacity="0.07"/><rect x="119.8" y="20.2" width="0.9" height="0.9" fill="#a08f6d" fill-opacity="0.06"/><rect x="107.7" y="31.0" width="0.9" height="0.9" fill="#a08f6d" fill-opacity="0.09"/><rect x="124.8" y="78.3" width="0.9" height="0.9" fill="#a08f6d" fill-opacity="0.11"/><rect x="75.2" y="2.2" width="0.9" height="0.9" fill="#a08f6d" fill-opacity="0.11"/><rect x="68.9" y="120.5" width="0.9" height="0.9" fill="#a08f6d" fill-opacity="0.11"/><rect x="12.8" y="107.2" width="0.9" height="0.9" fill="#a08f6d" fill-opacity="0.09"/><rect x="98.6" y="30.7" width="0.9" height="0.9" fill="#a08f6d" fill-opacity="0.07"/><rect x="71.3" y="46.1" width="0.9" height="0.9" fill="#a08f6d" fill-opacity="0.05"/><rect x="11.3" y="100.5" width="0.9" height="0.9" fill="#a08f6d" fill-opacity="0.06"/><rect x="75.3" y="2.2" width="0.9" height="0.9" fill="#a08f6d" fill-opacity="0.12"/><rect x="104.3" y="95.2" width="0.9" height="0.9" fill="#a08f6d" fill-opacity="0.11"/><rect x="107.5" y="119.5" width="0.9" height="0.9" fill="#a08f6d" fill-opacity="0.07"/><rect x="95.5" y="9.2" width="0.9" height="0.9" fill="#a08f6d" fill-opacity="0.08"/><rect x="35.5" y="121.4" width="0.9" height="0.9" fill="#a08f6d" fill-opacity="0.09"/><rect x="62.4" y="105.6" width="0.9" height="0.9" fill="#a08f6d" fill-opacity="0.11"/><rect x="72.9" y="89.9" width="0.9" height="0.9" fill="#a08f6d" fill-opacity="0.08"/><rect x="9.5" y="97.7" width="0.9" height="0.9" fill="#a08f6d" fill-opacity="0.08"/><rect x="53.2" y="39.2" width="0.9" height="0.9" fill="#a08f6d" fill-opacity="0.07"/><rect x="80.1" y="10.5" width="0.9" height="0.9" fill="#a08f6d" fill-opacity="0.12"/><rect x="20.8" y="19.7" width="0.9" height="0.9" fill="#a08f6d" fill-opacity="0.08"/><rect x="15.9" y="96.9" width="0.9" height="0.9" fill="#a08f6d" fill-opacity="0.08"/><rect x="89.4" y="91.9" width="0.9" height="0.9" fill="#a08f6d" fill-opacity="0.09"/><rect x="20.8" y="110.1" width="0.9" height="0.9" fill="#a08f6d" fill-opacity="0.12"/><rect x="41.9" y="85.8" width="0.9" height="0.9" fill="#a08f6d" fill-opacity="0.11"/><rect x="37.3" y="46.1" width="0.9" height="0.9" fill="#a08f6d" fill-opacity="0.09"/><rect x="72.9" y="46.6" width="0.9" height="0.9" fill="#a08f6d" fill-opacity="0.05"/><rect x="93.9" y="13.3" width="0.9" height="0.9" fill="#a08f6d" fill-opacity="0.07"/><rect x="102.1" y="8.3" width="0.9" height="0.9" fill="#a08f6d" fill-opacity="0.11"/><rect x="20.7" y="44.8" width="0.9" height="0.9" fill="#a08f6d" fill-opacity="0.06"/><rect x="48.1" y="49.0" width="0.9" height="0.9" fill="#a08f6d" fill-opacity="0.12"/><rect x="49.0" y="38.2" width="0.9" height="0.9" fill="#a08f6d" fill-opacity="0.09"/><rect x="119.5" y="63.8" width="0.9" height="0.9" fill="#a08f6d" fill-opacity="0.09"/><rect x="32.8" y="90.1" width="0.9" height="0.9" fill="#a08f6d" fill-opacity="0.07"/><rect x="95.8" y="108.2" width="0.9" height="0.9" fill="#a08f6d" fill-opacity="0.11"/><rect x="72.5" y="99.4" width="0.9" height="0.9" fill="#a08f6d" fill-opacity="0.05"/><rect x="18.6" y="96.9" width="0.9" height="0.9" fill="#a08f6d" fill-opacity="0.09"/><rect x="8.3" y="100.8" width="0.9" height="0.9" fill="#a08f6d" fill-opacity="0.09"/><rect x="95.5" y="82.7" width="0.9" height="0.9" fill="#a08f6d" fill-opacity="0.11"/><rect x="3.8" y="40.6" width="0.9" height="0.9" fill="#a08f6d" fill-opacity="0.08"/><rect x="9.0" y="25.0" width="0.9" height="0.9" fill="#a08f6d" fill-opacity="0.07"/><rect x="90.7" y="106.0" width="0.9" height="0.9" fill="#a08f6d" fill-opacity="0.10"/><rect x="94.9" y="117.2" width="0.9" height="0.9" fill="#a08f6d" fill-opacity="0.11"/><rect x="119.9" y="54.7" width="0.9" height="0.9" fill="#a08f6d" fill-opacity="0.10"/><rect x="103.9" y="117.2" width="0.9" height="0.9" fill="#a08f6d" fill-opacity="0.07"/><rect x="2.7" y="91.8" width="0.9" height="0.9" fill="#a08f6d" fill-opacity="0.10"/><rect x="68.1" y="41.8" width="0.9" height="0.9" fill="#a08f6d" fill-opacity="0.11"/><rect x="116.5" y="54.0" width="0.9" height="0.9" fill="#a08f6d" fill-opacity="0.11"/><rect x="84.8" y="19.0" width="0.9" height="0.9" fill="#a08f6d" fill-opacity="0.06"/><rect x="105.3" y="107.9" width="0.9" height="0.9" fill="#a08f6d" fill-opacity="0.10"/><rect x="126.6" y="74.3" width="0.9" height="0.9" fill="#a08f6d" fill-opacity="0.10"/><rect x="114.7" y="81.8" width="0.9" height="0.9" fill="#a08f6d" fill-opacity="0.09"/><rect x="17.2" y="64.3" width="0.9" height="0.9" fill="#a08f6d" fill-opacity="0.07"/><rect x="104.6" y="20.2" width="0.9" height="0.9" fill="#a08f6d" fill-opacity="0.06"/><rect x="58.8" y="45.4" width="0.9" height="0.9" fill="#a08f6d" fill-opacity="0.11"/><rect x="84.5" y="46.4" width="0.9" height="0.9" fill="#a08f6d" fill-opacity="0.10"/><rect x="10.2" y="29.1" width="0.9" height="0.9" fill="#a08f6d" fill-opacity="0.07"/><rect x="127.4" y="79.8" width="0.9" height="0.9" fill="#a08f6d" fill-opacity="0.06"/><rect x="16.5" y="125.8" width="0.9" height="0.9" fill="#a08f6d" fill-opacity="0.06"/><rect x="30.3" y="92.7" width="0.9" height="0.9" fill="#a08f6d" fill-opacity="0.05"/><rect x="4.6" y="66.1" width="0.9" height="0.9" fill="#a08f6d" fill-opacity="0.11"/><defs><radialGradient id="own_3"><stop offset="15%" stop-color="#302a22" stop-opacity="0.22"/><stop offset="100%" stop-color="#302a22" stop-opacity="0"/></radialGradient></defs><ellipse cx="64.0" cy="108.0" rx="42.0" ry="9.0" fill="url(#own_3)"/><polygon points="67.4,82.0 100.6,82.0 102.0,104.0 66.0,104.0" fill="#cdc0a0" fill-opacity="0.9" /><polyline points="72.5,96.6 86.0,97.4" fill="none" stroke="#5b5343" stroke-width="0.89" stroke-opacity="0.230" stroke-linecap="round" stroke-linejoin="round"/><polyline points="74.1,87.0 87.1,85.9" fill="none" stroke="#5b5343" stroke-width="0.83" stroke-opacity="0.323" stroke-linecap="round" stroke-linejoin="round"/><polyline points="74.0,91.2 87.5,90.6" fill="none" stroke="#5b5343" stroke-width="1.05" stroke-opacity="0.284" stroke-linecap="round" stroke-linejoin="round"/><polyline points="78.3,95.9 94.2,95.7" fill="none" stroke="#5b5343" stroke-width="0.86" stroke-opacity="0.220" stroke-linecap="round" stroke-linejoin="round"/><polyline points="67.2,82.1 65.8,103.9" fill="none" stroke="#3f382e" stroke-width="1.25" stroke-opacity="0.386" stroke-linecap="round" stroke-linejoin="round"/><polyline points="100.6,81.8 102.2,103.8" fill="none" stroke="#2b2621" stroke-width="1.51" stroke-opacity="0.570" stroke-linecap="round" stroke-linejoin="round"/><polyline points="100.2,82.3 102.1,104.1" fill="none" stroke="#2b2621" stroke-width="1.15" stroke-opacity="0.273" stroke-linecap="round" stroke-linejoin="round"/><path d="M 77.0 68.0 L 91.0 68.0 L 108.6 80.2 Q 95.0 83.8 84.0 83.2 Q 73.0 83.8 59.4 80.2 Z" fill="#d6cdb8" fill-opacity="0.95" /><line x1="79.0" y1="68.8" x2="67.3" y2="81.1" stroke="#837a68" stroke-opacity="0.28" stroke-width="0.7"/><line x1="81.0" y1="68.8" x2="74.0" y2="81.6" stroke="#837a68" stroke-opacity="0.28" stroke-width="0.7"/><line x1="83.0" y1="68.8" x2="80.7" y2="82.1" stroke="#837a68" stroke-opacity="0.28" stroke-width="0.7"/><line x1="85.0" y1="68.8" x2="87.3" y2="82.1" stroke="#837a68" stroke-opacity="0.28" stroke-width="0.7"/><line x1="87.0" y1="68.8" x2="94.0" y2="81.6" stroke="#837a68" stroke-opacity="0.28" stroke-width="0.7"/><line x1="89.0" y1="68.8" x2="100.7" y2="81.1" stroke="#837a68" stroke-opacity="0.28" stroke-width="0.7"/><polyline points="76.0,68.4 91.9,68.5" fill="none" stroke="#2b2621" stroke-width="3.17" stroke-opacity="0.782" stroke-linecap="round" stroke-linejoin="round"/><polyline points="75.6,68.4 92.4,68.3" fill="none" stroke="#2b2621" stroke-width="1.63" stroke-opacity="0.374" stroke-linecap="round" stroke-linejoin="round"/><polyline points="76.1,68.8 74.1,66.1 75.9,64.8" fill="none" stroke="#2b2621" stroke-width="1.84" stroke-opacity="0.662" stroke-linecap="round" stroke-linejoin="round"/><polyline points="91.8,69.0 93.9,66.2 92.3,64.9" fill="none" stroke="#2b2621" stroke-width="1.24" stroke-opacity="0.662" stroke-linecap="round" stroke-linejoin="round"/><polyline points="59.6,80.4 72.8,83.7 83.7,83.4 94.9,83.8 108.7,80.4" fill="none" stroke="#2b2621" stroke-width="1.73" stroke-opacity="0.718" stroke-linecap="round" stroke-linejoin="round"/><polyline points="59.2,80.0 73.2,83.9 84.4,83.2 94.9,83.4 108.4,80.6" fill="none" stroke="#2b2621" stroke-width="1.44" stroke-opacity="0.343" stroke-linecap="round" stroke-linejoin="round"/><polygon points="79.5,104.0 88.5,104.0 88.5,90.0 79.5,90.0" fill="#4b3a2c" fill-opacity="0.7" /><polyline points="79.6,104.1 79.6,89.9 88.5,90.1 88.6,104.1" fill="none" stroke="#b2452f" stroke-width="1.61" stroke-opacity="0.552" stroke-linecap="round" stroke-linejoin="round"/><polygon points="66.5,89.0 73.5,89.0 73.5,95.0 66.5,95.0" fill="#f2ead8" fill-opacity="0.85" /><polyline points="66.5,88.9 73.6,89.0 73.6,95.1 66.4,94.9 66.6,88.9" fill="none" stroke="#3f382e" stroke-width="1.31" stroke-opacity="0.552" stroke-linecap="round" stroke-linejoin="round"/><polyline points="70.0,89.0 69.9,95.1" fill="none" stroke="#5b5343" stroke-width="0.75" stroke-opacity="0.386" stroke-linecap="round" stroke-linejoin="round"/><polyline points="66.4,92.0 73.5,92.0" fill="none" stroke="#5b5343" stroke-width="0.97" stroke-opacity="0.386" stroke-linecap="round" stroke-linejoin="round"/><polygon points="19.8,80.0 60.2,80.0 62.0,106.0 18.0,106.0" fill="#d2c6a6" fill-opacity="0.9" /><polyline points="23.0,85.2 29.7,84.5" fill="none" stroke="#5b5343" stroke-width="0.85" stroke-opacity="0.209" stroke-linecap="round" stroke-linejoin="round"/><polyline points="26.2,97.5 35.4,98.2" fill="none" stroke="#5b5343" stroke-width="1.20" stroke-opacity="0.225" stroke-linecap="round" stroke-linejoin="round"/><polyline points="33.5,89.4 41.1,89.3" fill="none" stroke="#5b5343" stroke-width="1.03" stroke-opacity="0.312" stroke-linecap="round" stroke-linejoin="round"/><polyline points="22.2,87.3 38.6,87.8" fill="none" stroke="#5b5343" stroke-width="0.96" stroke-opacity="0.331" stroke-linecap="round" stroke-linejoin="round"/><polyline points="19.9,79.9 17.8,106.2" fill="none" stroke="#3f382e" stroke-width="1.46" stroke-opacity="0.386" stroke-linecap="round" stroke-linejoin="round"/><polyline points="60.3,79.9 62.1,106.2" fill="none" stroke="#2b2621" stroke-width="1.57" stroke-opacity="0.570" stroke-linecap="round" stroke-linejoin="round"/><polyline points="60.0,79.9 61.6,106.1" fill="none" stroke="#2b2621" stroke-width="1.07" stroke-opacity="0.273" stroke-linecap="round" stroke-linejoin="round"/><path d="M 32.0 64.0 L 48.0 64.0 L 68.6 78.2 Q 53.0 81.8 40.0 81.2 Q 27.0 81.8 11.4 78.2 Z" fill="#d8cfba" fill-opacity="0.95" /><line x1="34.0" y1="64.8" x2="19.4" y2="79.0" stroke="#837a68" stroke-opacity="0.28" stroke-width="0.7"/><line x1="36.0" y1="64.8" x2="26.3" y2="79.5" stroke="#837a68" stroke-opacity="0.28" stroke-width="0.7"/><line x1="38.0" y1="64.8" x2="33.1" y2="79.9" stroke="#837a68" stroke-opacity="0.28" stroke-width="0.7"/><line x1="40.0" y1="64.8" x2="40.0" y2="80.4" stroke="#837a68" stroke-opacity="0.28" stroke-width="0.7"/><line x1="42.0" y1="64.8" x2="46.9" y2="79.9" stroke="#837a68" stroke-opacity="0.28" stroke-width="0.7"/><line x1="44.0" y1="64.8" x2="53.7" y2="79.5" stroke="#837a68" stroke-opacity="0.28" stroke-width="0.7"/><line x1="46.0" y1="64.8" x2="60.6" y2="79.0" stroke="#837a68" stroke-opacity="0.28" stroke-width="0.7"/><polyline points="30.8,64.7 48.8,64.4" fill="none" stroke="#2b2621" stroke-width="3.16" stroke-opacity="0.782" stroke-linecap="round" stroke-linejoin="round"/><polyline points="30.8,64.5 49.2,64.5" fill="none" stroke="#2b2621" stroke-width="1.84" stroke-opacity="0.374" stroke-linecap="round" stroke-linejoin="round"/><polyline points="31.3,64.6 29.2,62.2 31.0,60.8" fill="none" stroke="#2b2621" stroke-width="1.78" stroke-opacity="0.662" stroke-linecap="round" stroke-linejoin="round"/><polyline points="48.6,65.0 50.7,62.3 49.2,60.8" fill="none" stroke="#2b2621" stroke-width="1.42" stroke-opacity="0.662" stroke-linecap="round" stroke-linejoin="round"/><polyline points="11.4,78.2 27.1,82.1 40.3,81.4 52.9,82.0 68.5,78.0" fill="none" stroke="#2b2621" stroke-width="2.36" stroke-opacity="0.718" stroke-linecap="round" stroke-linejoin="round"/><polyline points="10.9,78.7 27.2,81.4 40.0,80.9 53.4,81.4 68.5,78.7" fill="none" stroke="#2b2621" stroke-width="1.48" stroke-opacity="0.343" stroke-linecap="round" stroke-linejoin="round"/><polygon points="35.0,106.0 45.0,106.0 45.0,89.0 35.0,89.0" fill="#4b3a2c" fill-opacity="0.7" /><polyline points="35.1,106.0 35.0,88.8 44.9,89.1 45.0,106.1" fill="none" stroke="#b2452f" stroke-width="1.12" stroke-opacity="0.552" stroke-linecap="round" stroke-linejoin="round"/><polygon points="20.0,87.0 28.0,87.0 28.0,93.0 20.0,93.0" fill="#f2ead8" fill-opacity="0.85" /><polyline points="20.1,87.1 28.0,87.1 27.9,92.9 20.0,93.0 20.0,87.0" fill="none" stroke="#3f382e" stroke-width="0.98" stroke-opacity="0.552" stroke-linecap="round" stroke-linejoin="round"/><polyline points="24.0,87.1 24.0,92.9" fill="none" stroke="#5b5343" stroke-width="0.67" stroke-opacity="0.386" stroke-linecap="round" stroke-linejoin="round"/><polyline points="20.1,90.0 28.1,90.0" fill="none" stroke="#5b5343" stroke-width="0.77" stroke-opacity="0.386" stroke-linecap="round" stroke-linejoin="round"/><polyline points="30.4,78.6 31.7,84.4" fill="none" stroke="#5b5343" stroke-width="1.24" stroke-opacity="0.313" stroke-linecap="round" stroke-linejoin="round"/><polyline points="24.8,79.3 24.7,85.4" fill="none" stroke="#5b5343" stroke-width="0.85" stroke-opacity="0.313" stroke-linecap="round" stroke-linejoin="round"/><polyline points="49.9,79.8 50.0,87.0" fill="none" stroke="#5b5343" stroke-width="1.07" stroke-opacity="0.313" stroke-linecap="round" stroke-linejoin="round"/><polyline points="30.7,79.3 29.2,86.7" fill="none" stroke="#5b5343" stroke-width="0.92" stroke-opacity="0.313" stroke-linecap="round" stroke-linejoin="round"/><polyline points="36.3,79.4 37.0,85.7" fill="none" stroke="#5b5343" stroke-width="0.96" stroke-opacity="0.313" stroke-linecap="round" stroke-linejoin="round"/><polyline points="27.1,78.7 27.5,85.5" fill="none" stroke="#5b5343" stroke-width="0.90" stroke-opacity="0.313" stroke-linecap="round" stroke-linejoin="round"/><polyline points="31.9,79.3 32.5,86.0" fill="none" stroke="#5b5343" stroke-width="1.06" stroke-opacity="0.313" stroke-linecap="round" stroke-linejoin="round"/><polyline points="39.0,78.7 39.6,86.5" fill="none" stroke="#5b5343" stroke-width="1.05" stroke-opacity="0.313" stroke-linecap="round" stroke-linejoin="round"/><polyline points="63.9,78.1 65.1,82.6" fill="none" stroke="#5b5343" stroke-width="1.10" stroke-opacity="0.313" stroke-linecap="round" stroke-linejoin="round"/><polyline points="29.1,80.1 28.2,87.4" fill="none" stroke="#5b5343" stroke-width="1.22" stroke-opacity="0.313" stroke-linecap="round" stroke-linejoin="round"/><polyline points="44.1,78.6 43.8,84.3" fill="none" stroke="#5b5343" stroke-width="0.85" stroke-opacity="0.313" stroke-linecap="round" stroke-linejoin="round"/><polyline points="62.1,79.6 63.0,85.3" fill="none" stroke="#5b5343" stroke-width="0.91" stroke-opacity="0.313" stroke-linecap="round" stroke-linejoin="round"/><polyline points="10.1,106.0 9.8,100.1" fill="none" stroke="#b08a5e" stroke-width="0.90" stroke-opacity="0.506" stroke-linecap="round" stroke-linejoin="round"/><polyline points="13.2,105.5 13.3,99.5" fill="none" stroke="#b08a5e" stroke-width="1.12" stroke-opacity="0.506" stroke-linecap="round" stroke-linejoin="round"/><polyline points="16.4,105.4 16.2,99.0" fill="none" stroke="#b08a5e" stroke-width="0.99" stroke-opacity="0.506" stroke-linecap="round" stroke-linejoin="round"/><polyline points="19.4,104.7 19.7,98.8" fill="none" stroke="#b08a5e" stroke-width="0.87" stroke-opacity="0.506" stroke-linecap="round" stroke-linejoin="round"/><polyline points="22.8,104.5 22.8,98.3" fill="none" stroke="#b08a5e" stroke-width="1.11" stroke-opacity="0.506" stroke-linecap="round" stroke-linejoin="round"/><polyline points="25.8,104.1 26.3,98.0" fill="none" stroke="#b08a5e" stroke-width="0.80" stroke-opacity="0.506" stroke-linecap="round" stroke-linejoin="round"/><polyline points="9.9,101.4 25.9,99.5" fill="none" stroke="#b08a5e" stroke-width="0.97" stroke-opacity="0.414" stroke-linecap="round" stroke-linejoin="round"/><polyline points="52.0,98.0 51.9,84.1" fill="none" stroke="#b08a5e" stroke-width="1.26" stroke-opacity="0.552" stroke-linecap="round" stroke-linejoin="round"/><polyline points="52.1,88.0 72.0,86.1" fill="none" stroke="#b08a5e" stroke-width="1.43" stroke-opacity="0.552" stroke-linecap="round" stroke-linejoin="round"/><polygon points="56.0,88.0 66.0,87.0 66.0,94.0 56.0,95.0" fill="#9aa9b0" fill-opacity="0.6" /><defs><radialGradient id="own_4"><stop offset="0%" stop-color="#837a68" stop-opacity="0.16"/><stop offset="100%" stop-color="#837a68" stop-opacity="0"/></radialGradient></defs><circle cx="83.1" cy="66.0" r="3.0" fill="url(#own_4)"/><defs><radialGradient id="own_5"><stop offset="0%" stop-color="#837a68" stop-opacity="0.128"/><stop offset="100%" stop-color="#837a68" stop-opacity="0"/></radialGradient></defs><circle cx="84.6" cy="61.3" r="3.6" fill="url(#own_5)"/><defs><radialGradient id="own_6"><stop offset="0%" stop-color="#837a68" stop-opacity="0.09600000000000002"/><stop offset="100%" stop-color="#837a68" stop-opacity="0"/></radialGradient></defs><circle cx="83.6" cy="56.7" r="2.6" fill="url(#own_6)"/><rect x="106.0" y="110.0" width="10.0" height="10.0" fill="#b2452f" fill-opacity="0.78" rx="1"/><line x1="106.0" y1="115.0" x2="116.0" y2="115.0" stroke="#f2ead8" stroke-opacity="0.85" stroke-width="1"/><line x1="111.0" y1="110.0" x2="111.0" y2="120.0" stroke="#f2ead8" stroke-opacity="0.85" stroke-width="1"/>
</svg>
