<?xml version="1.0" encoding="UTF-8"?>
<svg xmlns="http://www.w3.org/2000/svg" width="256" height="256" viewBox="0 0 128 128" shape-rendering="geometricPrecision">
<rect width="128" height="128" fill="#f2ead8"/><defs><radialGradient id="own_1"><stop offset="0%" stop-color="#e2d7bd" stop-opacity="0.3"/><stop offset="100%" stop-color="#e2d7bd" stop-opacity="0"/></radialGradient></defs><circle cx="77.4" cy="42.9" r="42.0" fill="url(#own_1)"/><defs><radialGradient id="own_2"><stop offset="0%" stop-color="#fbf6ea" stop-opacity="0.34"/><stop offset="100%" stop-color="#fbf6ea" stop-opacity="0"/></radialGradient></defs><circle cx="71.3" cy="60.8" r="34.0" fill="url(#own_2)"/><line x1="115.5" y1="27.1" x2="111.2" y2="34.6" stroke="#c3b493" stroke-opacity="0.10" stroke-width="0.5"/><line x1="81.8" y1="86.0" x2="86.4" y2="101.3" stroke="#c3b493" stroke-opacity="0.10" stroke-width="0.5"/><line x1="88.1" y1="102.9" x2="92.7" y2="103.3" stroke="#c3b493" stroke-opacity="0.10" stroke-width="0.5"/><line x1="79.1" y1="94.1" x2="67.0" y2="94.5" stroke="#c3b493" stroke-opacity="0.10" stroke-width="0.5"/><line x1="86.2" y1="112.1" x2="81.2" y2="120.6" stroke="#c3b493" stroke-opacity="0.10" stroke-width="0.5"/><line x1="43.0" y1="69.5" x2="52.2" y2="74.5" stroke="#c3b493" stroke-opacity="0.10" stroke-width="0.5"/><line x1="25.4" y1="16.9" x2="18.2" y2="26.9" stroke="#c3b493" stroke-opacity="0.10" stroke-width="0.5"/><line x1="8.6" y1="93.8" x2="15.7" y2="95.5" stroke="#c3b493" stroke-opacity="0.10" stroke-width="0.5"/><line x1="88.1" y1="116.3" x2="84.8" y2="127.2" stroke="#c3b493" stroke-opacity="0.10" stroke-width="0.5"/><line x1="41.1" y1="61.7" x2="40.4" y2="68.8" stroke="#c3b493" stroke-opacity="0.10" stroke-width="0.5"/><line x1="127.0" y1="103.6" x2="129.9" y2="117.7" stroke="#c3b493" stroke-opacity="0.10" stroke-width="0.5"/><line x1="47.8" y1="103.7" x2="39.8" y2="114.2" stroke="#c3b493" stroke-opacity="0.10" stroke-width="0.5"/><line x1="83.0" y1="63.8" x2="93.4" y2="71.5" stroke="#c3b493" stroke-opacity="0.10" stroke-width="0.5"/><line x1="113.9" y1="90.1" x2="106.1" y2="92.8" stroke="#c3b493" stroke-opacity="0.10" stroke-width="0.5"/><line x1="15.2" y1="34.5" x2="18.4" y2="40.7" stroke="#c3b493" stroke-opacity="0.10" stroke-width="0.5"/><line x1="77.6" y1="27.0" x2="64.7" y2="33.3" stroke="#c3b493" stroke-opacity="0.10" stroke-width="0.5"/><line x1="122.2" y1="28.1" x2="126.4" y2="40.9" stroke="#c3b493" stroke-opacity="0.10" stroke-width="0.5"/><line x1="117.7" y1="116.4" x2="122.5" y2="119.9" stroke="#c3b493" stroke-opacity="0.10" stroke-width="0.5"/><line x1="74.8" y1="69.8" x2="71.8" y2="76.1" stroke="#c3b493" stroke-opacity="0.10" stroke-width="0.5"/><line x1="20.5" y1="77.1" x2="7.3" y2="80.5" stroke="#c3b493" stroke-opacity="0.10" stroke-width="0.5"/><line x1="67.5" y1="37.8" x2="77.7" y2="42.6" stroke="#c3b493" stroke-opacity="0.10" stroke-width="0.5"/><line x1="97.0" y1="43.8" x2="89.6" y2="50.7" stroke="#c3b493" stroke-opacity="0.10" stroke-width="0.5"/><line x1="61.4" y1="13.5" x2="47.3" y2="19.0" stroke="#c3b493" stroke-opacity="0.10" stroke-width="0.5"/><line x1="28.4" y1="5.9" x2="23.3" y2="8.6" stroke="#c3b493" stroke-opacity="0.10" stroke-width="0.5"/><line x1="104.8" y1="66.0" x2="98.0" y2="75.6" stroke="#c3b493" stroke-opacity="0.10" stroke-width="0.5"/><line x1="95.2" y1="119.7" x2="97.2" y2="123.3" stroke="#c3b493" stroke-opacity="0.10" stroke-width="0.5"/><rect x="125.5" y="124.4" width="0.9" height="0.9" fill="#a08f6d" fill-opacity="0.11"/><rect x="123.6" y="14.1" width="0.9" height="0.9" fill="#a08f6d" fill-opacity="0.10"/><rect x="95.6" y="12.6" width="0.9" height="0.9" fill="#a08f6d" fill-opacity="0.12"/><rect x="68.4" y="41.7" width="0.9" height="0.9" fill="#a08f6d" fill-opacity="0.08"/><rect x="37.3" y="95.5" width="0.9" height="0.9" fill="#a08f6d" fill-opacity="0.11"/><rect x="27.7" y="122.3" width="0.9" height="0.9" fill="#a08f6d" fill-opacity="0.08"/><rect x="46.6" y="25.5" width="0.9" height="0.9" fill="#a08f6d" fill-opacity="0.05"/><rect x="70.4" y="77.6" width="0.9" height="0.9" fill="#a08f6d" fill-opacity="0.09"/><rect x="33.7" y="5.3" width="0.9" height="0.9" fill="#a08f6d" fill-opacity="0.07"/><rect x="35.4" y="52.6" width="0.9" height="0.9" fill="#a08f6d" fill-opacity="0.11"/><rect x="46.6" y="11.1" width="0.9" height="0.9" fill="#a08f6d" fill-opacity="0.08"/><rect x="24.4" y="33.4" width="0.9" height="0.9" fill="#a08f6d" fill-opacity="0.12"/><rect x="71.7" y="36.2" width="0.9" height="0.9" fill="#a08f6d" fill-opacity="0.07"/><rect x="17.4" y="96.4" width="0.9" height="0.9" fill="#a08f6d" fill-opacity="0.08"/><rect x="59.2" y="59.7" width="0.9" height="0.9" fill="#a08f6d" fill-opacity="0.11"/><rect x="74.5" y="70.9" width="0.9" height="0.9" fill="#a08f6d" fill-opacity="0.08"/><rect x="114.9" y="61.4" width="0.9" height="0.9" fill="#a08f6d" fill-opacity="0.08"/><rect x="42.1" y="51.5" width="0.9" height="0.9" fill="#a08f6d" fill-opacity="0.11"/><rect x="73.0" y="55.9" width="0.9" height="0.9" fill="#a08f6d" fill-opacity="0.12"/><rect x="8.6" y="20.7" width="0.9" height="0.9" fill="#a08f6d" fill-opacity="0.06"/><rect x="46.3" y="74.2" width="0.9" height="0.9" fill="#a08f6d" fill-opacity="0.08"/><rect x="108.9" y="78.8" width="0.9" height="0.9" fill="#a08f6d" fill-opacity="0.12"/><rect x="85.2" y="59.4" width="0.9" height="0.9" fill="#a08f6d" fill-opacity="0.07"/><rect x="5.0" y="77.5" width="0.9" height="0.9" fill="#a08f6d" fill-opacity="0.07"/><rect x="34.3" y="88.1" width="0.9" height="0.9" fill="#a08f6d" fill-opacity="0.08"/><rect x="67.6" y="45.5" width="0.9" height="0.9" fill="#a08f6d" fill-opacity="0.12"/><rect x="72.7" y="40.0" width="0.9" height="0.9" fill="#a08f6d" fill-opacity="0.09"/><rect x="8.6" y="6.3" width="0.9" height="0.9" fill="#a08f6d" fill-opacity="0.07"/><rect x="100.7" y="5.0" width="0.9" height="0.9" fill="#a08f6d" fill-opacity="0.11"/><rect x="104.0" y="35.4" width="0.9" height="0.9" fill="#a08f6d" fill-opacity="0.07"/><rect x="75.6" y="92.2" width="0.9" height="0.9" fill="#a08f6d" fill-opacity="0.10"/><rect x="96.8" y="18.9" width="0.9" height="0.9" fill="#a08f6d" fill-opacity="0.10"/><rect x="6.8" y="71.3" width="0.9" height="0.9" fill="#a08f6d" fill-opacity="0.09"/><rect x="92.7" y="20.3" width="0.9" height="0.9" fill="#a08f6d" fill-opacity="0.10"/><rect x="97.7" y="10.5" width="0.9" height="0.9" fill="#a08f6d" fill-opacity="0.05"/><rect x="83.0" y="71.2" width="0.9" height="0.9" fill="#a08f6d" fill-opacity="0.12"/><rect x="69.3" y="127.9" width="0.9" height="0.9" fill="#a08f6d" fill-opacity="0.07"/><rect x="120.7" y="72.5" width="0.9" height="0.9" fill="#a08f6d" fill-opacity="0.06"/><rect x="46.0" y="31.8" width="0.9" height="0.9" fill="#a08f6d" fill-opacity="0.08"/><rect x="9.0" y="85.6" width="0.9" height="0.9" fill="#a08f6d" fill-opacity="0.11"/><rect x="46.1" y="62.9" width="0.9" height="0.9" fill="#a08f6d" fill-opacity="0.06"/><rect x="41.5" y="37.0" width="0.9" height="0.9" fill="#a08f6d" fill-opacity="0.12"/><rect x="93.8" y="25.7" width="0.9" height="0.9" fill="#a08f6d" fill-opacity="0.11"/><rect x="120.9" y="121.6" width="0.9" height="0.9" fill="#a08f6d" fill-opacity="0.11"/><rect x="76.5" y="55.6" width="0.9" height="0.9" fill="#a08f6d" fill-opacity="0.06"/><rect x="37.6" y="9.3" width="0.9" height="0.9" fill="#a08f6d" fill-opacity="0.08"/><rect x="40.8" y="44.5" width="0.9" height="0.9" fill="#a08f6d" fill-opacity="0.08"/><rect x="45.5" y="122.3" width="0.9" height="0.9" fill="#a08f6d" fill-opacity="0.11"/><rect x="42.4" y="50.0" width="0.9" height="0.9" fill="#a08f6d" fill-opacity="0.11"/><rect x="2.2" y="95.9" width="0.9" height="0.9" fill="#a08f6d" fill-opacity="0.05"/><rect x="72.1" y="102.0" width="0.9" height="0.9" fill="#a08f6d" fill-opacity="0.07"/><rect x="6.5" y="59.8" width="0.9" height="0.9" fill="#a08f6d" fill-opacity="0.05"/><rect x="82.0" y="58.3" width="0.9" height="0.9" fill="#a08f6d" fill-opacity="0.11"/><rect x="38.3" y="44.8" width="0.9" height="0.9" fill="#a08f6d" fill-opacity="0.06"/><rect x="44.7" y="125.7" width="0.9" height="0.9" fill="#a08f6d" fill-opacity="0.11"/><rect x="19.3" y="33.9" width="0.9" height="0.9" fill="#a08f6d" fill-opacity="0.11"/><rect x="51.7" y="59.9" width="0.9" height="0.9" fill="#a08f6d" fill-opacity="0.10"/><rect x="3.5" y="96.5" width="0.9" height="0.9" fill="#a08f6d" fill-opacity="0.06"/><rect x="47.5" y="76.6" width="0.9" height="0.9" fill="#a08f6d" fill-opacity="0.11"/><rect x="78.5" y="20.0" width="0.9" height="0.9" fill="#a08f6d" fill-opacity="0.10"/><rect x="27.2" y="42.2" width="0.9" height="0.9" fill="#a08f6d" fill-opacity="0.08"/><rect x="89.1" y="51.7" width="0.9" height="0.9" fill="#a08f6d" fill-opacity="0.06"/><rect x="74.7" y="101.6" width="0.9" height="0.9" fill="#a08f6d" fill-opacity="0.07"/><rect x="110.6" y="98.4" width="0.9" height="0.9" fill="#a08f6d" fill-opacity="0.12"/><rect x="119.0" y="69.9" width="0.9" height="0.9" fill="#a08f6d" fill-opacity="0.11"/><rect x="37.8" y="52.2" width="0.9" height="0.9" fill="#a08f6d" fill-opacity="0.11"/><rect x="125.9" y="97.4" width="0.9" height="0.9" fill="#a08f6d" fill-opacity="0.07"/><rect x="17.4" y="102.1" width="0.9" height="0.9" fill="#a08f6d" fill-opacity="0.09"/><rect x="82.2" y="13.0" width="0.9" height="0.9" fill="#a08f6d" fill-opacity="0.07"/><rect x="93.1" y="105.5" width="0.9" height="0.9" fill="#a08f6d" fill-opacity="0.11"/><rect x="123.5" y="30.5" width="0.9" height="0.9" fill="#a08f6d" fill-opacity="0.07"/><rect x="57.6" y="42.9" width="0.9" height="0.9" fill="#a08f6d" fill-opacity="0.10"/><rect x="91.9" y="107.1" width="0.9" height="0.9" fill="#a08f6d" fill-opacity="0.11"/><rect x="32.1" y="26.2" width="0.9" height="0.9" fill="#a08f6d" fill-opacity="0.10"/><rect x="24.0" y="54.9" width="0.9" height="0.9" fill="#a08f6d" fill-opacity="0.06"/><rect x="8.9" y="36.3" width="0.9" height="0.9" fill="#a08f6d" fill-opacity="0.10"/><rect x="52.4" y="34.6" width="0.9" height="0.9" fill="#a08f6d" fill-opacity="0.10"/><rect x="105.2" y="63.8" width="0.9" height="0.9" fill="#a08f6d" fill-opacity="0.05"/><rect x="90.5" y="93.9" width="0.9" height="0.9" fill="#a08f6d" fill-opacity="0.08"/><rect x="105.3" y="109.6" width="0.9" height="0.9" fill="#a08f6d" fill-opacity="0.09"/><rect x="2.3" y="109.7" width="0.9" height="0.9" fill="#a08f6d" fill-opacity="0.09"/><rect x="46.6" y="84.2" width="0.9" height="0.9" fill="#a08f6d" fill-opacity="0.11"/><rect x="116.3" y="10.4" width="0.9" height="0.9" fill="#a08f6d" fill-opacity="0.10"/><rect x="72.9" y="124.4" width="0.9" height="0.9" fill="#a08f6d" fill-opacity="0.05"/><rect x="0.8" y="45.7" width="0.9" height="0.9" fill="#a08f6d" fill-opacity="0.10"/><rect x="63.7" y="84.3" width="0.9" height="0.9" fill="#a08f6d" fill-opacity="0.07"/><rect x="87.4" y="14.6" width="0.9" height="0.9" fill="#a08f6d" fill-opacity="0.08"/><rect x="102.0" y="89.1" width="0.9" height="0.9" fill="#a08f6d" fill-opacity="0.11"/><rect x="21.3" y="20.2" width="0.9" height="0.9" fill="#a08f6d" fill-opacity="0.12"/><rect x="37.3" y="74.4" width="0.9" height="0.9" fill="#a08f6d" fill-opacity="0.10"/><defs><radialGradient id="own_3"><stop offset="0%" stop-color="#5d8496" stop-opacity="0.22"/><stop offset="100%" stop-color="#5d8496" stop-opacity="0"/></radialGradient></defs><circle cx="64.0" cy="108.0" r="54.0" fill="url(#own_3)"/><polyline points="11.4,102.8 25.0,101.6 38.6,103.0" fill="none" stroke="#5d8496" stroke-width="1.07" stroke-opacity="0.276" stroke-linecap="round" stroke-linejoin="round"/><polyline points="7.7,105.7 34.1,103.6 60.7,105.7" fill="none" stroke="#5d8496" stroke-width="0.98" stroke-opacity="0.276" stroke-linecap="round" stroke-linejoin="round"/><polyline points="17.3,110.7 36.8,108.6 56.0,111.0" fill="none" stroke="#5d8496" stroke-width="0.93" stroke-opacity="0.276" stroke-linecap="round" stroke-linejoin="round"/><defs><radialGradient id="own_4"><stop offset="15%" stop-color="#302a22" stop-opacity="0.2"/><stop offset="100%" stop-color="#302a22" stop-opacity="0"/></radialGradient></defs><ellipse cx="64.0" cy="106.0" rx="40.0" ry="8.0" fill="url(#own_4)"/><polygon points="20.0,76.0 92.0,82.0 92.0,78.0 22.0,70.0" fill="#dcd4c1" fill-opacity="0.95" /><polyline points="22.1,69.9 92.2,78.2" fill="none" stroke="#2b2621" stroke-width="1.58" stroke-opacity="0.552" stroke-linecap="round" stroke-linejoin="round"/><polyline points="21.6,69.7 91.9,78.0" fill="none" stroke="#2b2621" stroke-width="1.50" stroke-opacity="0.264" stroke-linecap="round" stroke-linejoin="round"/><polyline points="20.0,75.9 92.0,82.0" fill="none" stroke="#3f382e" stroke-width="1.62" stroke-opacity="0.506" stroke-linecap="round" stroke-linejoin="round"/><polyline points="26.1,74.0 27.1,78.1" fill="none" stroke="#837a68" stroke-width="0.88" stroke-opacity="0.276" stroke-linecap="round" stroke-linejoin="round"/><polyline points="38.9,74.9 40.0,79.0" fill="none" stroke="#837a68" stroke-width="0.71" stroke-opacity="0.276" stroke-linecap="round" stroke-linejoin="round"/><polyline points="52.0,75.7 53.1,79.7" fill="none" stroke="#837a68" stroke-width="0.90" stroke-opacity="0.276" stroke-linecap="round" stroke-linejoin="round"/><polyline points="64.9,76.8 65.9,80.8" fill="none" stroke="#837a68" stroke-width="0.92" stroke-opacity="0.276" stroke-linecap="round" stroke-linejoin="round"/><polyline points="78.0,77.7 79.1,81.6" fill="none" stroke="#837a68" stroke-width="0.77" stroke-opacity="0.276" stroke-linecap="round" stroke-linejoin="round"/><polyline points="90.9,78.4 92.1,82.5" fill="none" stroke="#837a68" stroke-width="0.92" stroke-opacity="0.276" stroke-linecap="round" stroke-linejoin="round"/><polyline points="27.8,82.1 28.0,94.1 27.9,106.2" fill="none" stroke="#3f382e" stroke-width="1.46" stroke-opacity="0.506" stroke-linecap="round" stroke-linejoin="round"/><polyline points="28.1,81.8 27.7,94.1 27.9,106.3" fill="none" stroke="#3f382e" stroke-width="1.56" stroke-opacity="0.242" stroke-linecap="round" stroke-linejoin="round"/><polyline points="52.0,82.2 51.9,93.9 51.8,106.1" fill="none" stroke="#3f382e" stroke-width="1.68" stroke-opacity="0.506" stroke-linecap="round" stroke-linejoin="round"/><polyline points="51.7,81.9 52.0,93.9 52.0,105.8" fill="none" stroke="#3f382e" stroke-width="1.03" stroke-opacity="0.242" stroke-linecap="round" stroke-linejoin="round"/><polyline points="75.9,81.8 75.8,94.0 75.8,105.8" fill="none" stroke="#3f382e" stroke-width="1.68" stroke-opacity="0.506" stroke-linecap="round" stroke-linejoin="round"/><polyline points="76.4,82.3 75.7,94.2 75.9,105.9" fill="none" stroke="#3f382e" stroke-width="1.54" stroke-opacity="0.242" stroke-linecap="round" stroke-linejoin="round"/><polyline points="100.2,82.0 100.1,93.9 100.1,106.1" fill="none" stroke="#3f382e" stroke-width="2.04" stroke-opacity="0.506" stroke-linecap="round" stroke-linejoin="round"/><polyline points="99.8,81.9 99.9,94.3 99.7,106.3" fill="none" stroke="#3f382e" stroke-width="1.31" stroke-opacity="0.242" stroke-linecap="round" stroke-linejoin="round"/><polygon points="34.0,104.0 40.0,96.0 54.0,90.0 68.0,96.0 74.0,104.0" fill="#b09a72" fill-opacity="0.92" /><polyline points="34.0,104.0 40.1,95.9 54.1,90.1 67.9,96.1 74.0,103.9" fill="none" stroke="#2b2621" stroke-width="1.73" stroke-opacity="0.570" stroke-linecap="round" stroke-linejoin="round"/><polyline points="33.7,104.4 40.2,95.6 53.8,89.7 68.3,96.2 74.1,104.3" fill="none" stroke="#2b2621" stroke-width="0.98" stroke-opacity="0.273" stroke-linecap="round" stroke-linejoin="round"/><polyline points="44.1,98.8 64.1,99.2" fill="none" stroke="#5b5343" stroke-width="0.80" stroke-opacity="0.322" stroke-linecap="round" stroke-linejoin="round"/><polyline points="78.1,106.1 93.8,83.9" fill="none" stroke="#b08a5e" stroke-width="1.42" stroke-opacity="0.552" stroke-linecap="round" stroke-linejoin="round"/><rect x="106.0" y="110.0" width="10.0" height="10.0" fill="#b2452f" fill-opacity="0.78" rx="1"/><line x1="106.0" y1="115.0" x2="116.0" y2="115.0" stroke="#f2ead8" stroke-opacity="0.85" stroke-width="1"/><line x1="111.0" y1="110.0" x2="111.0" y2="120.0" stroke="#f2ead8" stroke-opacity="0.85" stroke-width="1"/>
</svg>
