<?xml version="1.0" encoding="UTF-8"?>
<svg xmlns="http://www.w3.org/2000/svg" width="256" height="256" viewBox="0 0 128 128" shape-rendering="geometricPrecision">
<rect width="128" height="128" fill="#f2ead8"/><defs><radialGradient id="own_1"><stop offset="0%" stop-color="#e2d7bd" stop-opacity="0.3"/><stop offset="100%" stop-color="#e2d7bd" stop-opacity="0"/></radialGradient></defs><circle cx="88.1" cy="62.1" r="42.0" fill="url(#own_1)"/><defs><radialGradient id="own_2"><stop offset="0%" stop-color="#fbf6ea" stop-opacity="0.34"/><stop offset="100%" stop-color="#fbf6ea" stop-opacity="0"/></radialGradient></defs><circle cx="73.1" cy="118.2" r="34.0" fill="url(#own_2)"/><line x1="101.0" y1="16.7" x2="97.6" y2="30.9" stroke="#c3b493" stroke-opacity="0.10" stroke-width="0.5"/><line x1="121.5" y1="47.9" x2="117.9" y2="56.4" stroke="#c3b493" stroke-opacity="0.10" stroke-width="0.5"/><line x1="57.5" y1="8.6" x2="49.6" y2="10.2" stroke="#c3b493" stroke-opacity="0.10" stroke-width="0.5"/><line x1="42.5" y1="41.1" x2="36.8" y2="44.9" stroke="#c3b493" stroke-opacity="0.10" stroke-width="0.5"/><line x1="35.3" y1="2.8" x2="32.7" y2="8.3" stroke="#c3b493" stroke-opacity="0.10" stroke-width="0.5"/><line x1="79.2" y1="68.8" x2="76.7" y2="74.6" stroke="#c3b493" stroke-opacity="0.10" stroke-width="0.5"/><line x1="23.2" y1="59.6" x2="17.0" y2="71.8" stroke="#c3b493" stroke-opacity="0.10" stroke-width="0.5"/><line x1="111.6" y1="60.9" x2="118.7" y2="72.7" stroke="#c3b493" stroke-opacity="0.10" stroke-width="0.5"/><line x1="4.5" y1="108.0" x2="4.5" y2="112.4" stroke="#c3b493" stroke-opacity="0.10" stroke-width="0.5"/><line x1="102.6" y1="75.3" x2="104.4" y2="89.9" stroke="#c3b493" stroke-opacity="0.10" stroke-width="0.5"/><line x1="11.3" y1="58.9" x2="5.2" y2="59.2" stroke="#c3b493" stroke-opacity="0.10" stroke-width="0.5"/><line x1="77.1" y1="53.4" x2="87.9" y2="61.7" stroke="#c3b493" stroke-opacity="0.10" stroke-width="0.5"/><line x1="46.4" y1="1.6" x2="37.4" y2="5.0" stroke="#c3b493" stroke-opacity="0.10" stroke-width="0.5"/><line x1="114.2" y1="51.9" x2="129.0" y2="52.9" stroke="#c3b493" stroke-opacity="0.10" stroke-width="0.5"/><line x1="2.0" y1="125.4" x2="-2.7" y2="129.7" stroke="#c3b493" stroke-opacity="0.10" stroke-width="0.5"/><line x1="37.0" y1="110.1" x2="35.9" y2="123.7" stroke="#c3b493" stroke-opacity="0.10" stroke-width="0.5"/><line x1="30.0" y1="80.1" x2="21.2" y2="84.6" stroke="#c3b493" stroke-opacity="0.10" stroke-width="0.5"/><line x1="26.1" y1="75.8" x2="24.3" y2="85.6" stroke="#c3b493" stroke-opacity="0.10" stroke-width="0.5"/><line x1="33.6" y1="4.8" x2="31.7" y2="12.5" stroke="#c3b493" stroke-opacity="0.10" stroke-width="0.5"/><line x1="80.2" y1="60.4" x2="78.4" y2="68.7" stroke="#c3b493" stroke-opacity="0.10" stroke-width="0.5"/><line x1="50.5" y1="53.2" x2="52.7" y2="63.3" stroke="#c3b493" stroke-opacity="0.10" stroke-width="0.5"/><line x1="86.8" y1="12.8" x2="84.8" y2="18.7" stroke="#c3b493" stroke-opacity="0.10" stroke-width="0.5"/><line x1="112.1" y1="14.3" x2="115.0" y2="18.6" stroke="#c3b493" stroke-opacity="0.10" stroke-width="0.5"/><line x1="83.6" y1="42.3" x2="84.7" y2="49.8" stroke="#c3b493" stroke-opacity="0.10" stroke-width="0.5"/><line x1="0.7" y1="98.7" x2="12.1" y2="99.3" stroke="#c3b493" stroke-opacity="0.10" stroke-width="0.5"/><line x1="123.6" y1="57.1" x2="128.0" y2="65.5" stroke="#c3b493" stroke-opacity="0.10" stroke-width="0.5"/><rect x="28.1" y="24.3" width="0.9" height="0.9" fill="#a08f6d" fill-opacity="0.08"/><rect x="19.7" y="3.6" width="0.9" height="0.9" fill="#a08f6d" fill-opacity="0.12"/><rect x="96.4" y="22.0" width="0.9" height="0.9" fill="#a08f6d" fill-opacity="0.11"/><rect x="127.7" y="114.9" width="0.9" height="0.9" fill="#a08f6d" fill-opacity="0.06"/><rect x="27.5" y="52.8" width="0.9" height="0.9" fill="#a08f6d" fill-opacity="0.10"/><rect x="120.9" y="89.9" width="0.9" height="0.9" fill="#a08f6d" fill-opacity="0.08"/><rect x="18.3" y="43.0" width="0.9" height="0.9" fill="#a08f6d" fill-opacity="0.07"/><rect x="89.3" y="70.8" width="0.9" height="0.9" fill="#a08f6d" fill-opacity="0.09"/><rect x="15.9" y="49.5" width="0.9" height="0.9" fill="#a08f6d" fill-opacity="0.08"/><rect x="64.7" y="5.2" width="0.9" height="0.9" fill="#a08f6d" fill-opacity="0.09"/><rect x="82.1" y="117.5" width="0.9" height="0.9" fill="#a08f6d" fill-opacity="0.11"/><rect x="73.4" y="121.8" width="0.9" height="0.9" fill="#a08f6d" fill-opacity="0.09"/><rect x="34.2" y="14.8" width="0.9" height="0.9" fill="#a08f6d" fill-opacity="0.09"/><rect x="41.6" y="126.6" width="0.9" height="0.9" fill="#a08f6d" fill-opacity="0.06"/><rect x="57.2" y="89.0" width="0.9" height="0.9" fill="#a08f6d" fill-opacity="0.06"/><rect x="91.5" y="118.2" width="0.9" height="0.9" fill="#a08f6d" fill-opacity="0.11"/><rect x="73.3" y="69.6" width="0.9" height="0.9" fill="#a08f6d" fill-opacity="0.07"/><rect x="28.4" y="112.1" width="0.9" height="0.9" fill="#a08f6d" fill-opacity="0.11"/><rect x="84.8" y="116.3" width="0.9" height="0.9" fill="#a08f6d" fill-opacity="0.09"/><rect x="68.1" y="21.4" width="0.9" height="0.9" fill="#a08f6d" fill-opacity="0.11"/><rect x="70.5" y="113.5" width="0.9" height="0.9" fill="#a08f6d" fill-opacity="0.10"/><rect x="85.7" y="58.7" width="0.9" height="0.9" fill="#a08f6d" fill-opacity="0.06"/><rect x="12.4" y="18.0" width="0.9" height="0.9" fill="#a08f6d" fill-opacity="0.11"/><rect x="83.8" y="107.5" width="0.9" height="0.9" fill="#a08f6d" fill-opacity="0.09"/><rect x="12.1" y="40.9" width="0.9" height="0.9" fill="#a08f6d" fill-opacity="0.06"/><rect x="53.7" y="61.4" width="0.9" height="0.9" fill="#a08f6d" fill-opacity="0.11"/><rect x="44.9" y="80.7" width="0.9" height="0.9" fill="#a08f6d" fill-opacity="0.10"/><rect x="91.6" y="127.1" width="0.9" height="0.9" fill="#a08f6d" fill-opacity="0.08"/><rect x="126.9" y="125.5" width="0.9" height="0.9" fill="#a08f6d" fill-opacity="0.10"/><rect x="45.3" y="72.2" width="0.9" height="0.9" fill="#a08f6d" fill-opacity="0.06"/><rect x="81.7" y="27.2" width="0.9" height="0.9" fill="#a08f6d" fill-opacity="0.08"/><rect x="29.9" y="104.3" width="0.9" height="0.9" fill="#a08f6d" fill-opacity="0.08"/><rect x="96.0" y="89.0" width="0.9" height="0.9" fill="#a08f6d" fill-opacity="0.08"/><rect x="48.8" y="56.2" width="0.9" height="0.9" fill="#a08f6d" fill-opacity="0.10"/><rect x="109.3" y="102.8" width="0.9" height="0.9" fill="#a08f6d" fill-opacity="0.06"/><rect x="47.5" y="24.3" width="0.9" height="0.9" fill="#a08f6d" fill-opacity="0.08"/><rect x="56.5" y="11.2" width="0.9" height="0.9" fill="#a08f6d" fill-opacity="0.07"/><rect x="37.7" y="122.9" width="0.9" height="0.9" fill="#a08f6d" fill-opacity="0.11"/><rect x="76.0" y="1.0" width="0.9" height="0.9" fill="#a08f6d" fill-opacity="0.07"/><rect x="13.2" y="82.5" width="0.9" height="0.9" fill="#a08f6d" fill-opacity="0.07"/><rect x="107.2" y="3.7" width="0.9" height="0.9" fill="#a08f6d" fill-opacity="0.10"/><rect x="60.7" y="39.9" width="0.9" height="0.9" fill="#a08f6d" fill-opacity="0.10"/><rect x="85.4" y="2.4" width="0.9" height="0.9" fill="#a08f6d" fill-opacity="0.11"/><rect x="99.6" y="7.5" width="0.9" height="0.9" fill="#a08f6d" fill-opacity="0.06"/><rect x="14.5" y="1.0" width="0.9" height="0.9" fill="#a08f6d" fill-opacity="0.06"/><rect x="111.9" y="68.9" width="0.9" height="0.9" fill="#a08f6d" fill-opacity="0.05"/><rect x="63.3" y="8.3" width="0.9" height="0.9" fill="#a08f6d" fill-opacity="0.07"/><rect x="1.0" y="21.0" width="0.9" height="0.9" fill="#a08f6d" fill-opacity="0.08"/><rect x="45.5" y="3.9" width="0.9" height="0.9" fill="#a08f6d" fill-opacity="0.07"/><rect x="117.8" y="55.2" width="0.9" height="0.9" fill="#a08f6d" fill-opacity="0.05"/><rect x="25.7" y="26.0" width="0.9" height="0.9" fill="#a08f6d" fill-opacity="0.05"/><rect x="24.7" y="7.4" width="0.9" height="0.9" fill="#a08f6d" fill-opacity="0.06"/><rect x="106.7" y="93.1" width="0.9" height="0.9" fill="#a08f6d" fill-opacity="0.08"/><rect x="127.2" y="46.6" width="0.9" height="0.9" fill="#a08f6d" fill-opacity="0.07"/><rect x="83.3" y="100.7" width="0.9" height="0.9" fill="#a08f6d" fill-opacity="0.10"/><rect x="72.8" y="70.6" width="0.9" height="0.9" fill="#a08f6d" fill-opacity="0.05"/><rect x="98.6" y="52.7" width="0.9" height="0.9" fill="#a08f6d" fill-opacity="0.11"/><rect x="74.8" y="9.5" width="0.9" height="0.9" fill="#a08f6d" fill-opacity="0.11"/><rect x="107.1" y="22.4" width="0.9" height="0.9" fill="#a08f6d" fill-opacity="0.07"/><rect x="78.4" y="34.2" width="0.9" height="0.9" fill="#a08f6d" fill-opacity="0.12"/><rect x="107.2" y="53.9" width="0.9" height="0.9" fill="#a08f6d" fill-opacity="0.10"/><rect x="108.8" y="7.0" width="0.9" height="0.9" fill="#a08f6d" fill-opacity="0.10"/><rect x="84.5" y="34.2" width="0.9" height="0.9" fill="#a08f6d" fill-opacity="0.07"/><rect x="124.3" y="99.6" width="0.9" height="0.9" fill="#a08f6d" fill-opacity="0.06"/><rect x="102.0" y="28.9" width="0.9" height="0.9" fill="#a08f6d" fill-opacity="0.08"/><rect x="50.1" y="127.5" width="0.9" height="0.9" fill="#a08f6d" fill-opacity="0.08"/><rect x="52.5" y="22.7" width="0.9" height="0.9" fill="#a08f6d" fill-opacity="0.07"/><rect x="121.7" y="70.4" width="0.9" height="0.9" fill="#a08f6d" fill-opacity="0.08"/><rect x="84.5" y="52.1" width="0.9" height="0.9" fill="#a08f6d" fill-opacity="0.07"/><rect x="69.5" y="74.2" width="0.9" height="0.9" fill="#a08f6d" fill-opacity="0.09"/><rect x="127.2" y="11.8" width="0.9" height="0.9" fill="#a08f6d" fill-opacity="0.06"/><rect x="63.4" y="21.2" width="0.9" height="0.9" fill="#a08f6d" fill-opacity="0.06"/><rect x="16.9" y="114.1" width="0.9" height="0.9" fill="#a08f6d" fill-opacity="0.11"/><rect x="47.6" y="116.7" width="0.9" height="0.9" fill="#a08f6d" fill-opacity="0.07"/><rect x="29.4" y="85.3" width="0.9" height="0.9" fill="#a08f6d" fill-opacity="0.07"/><rect x="70.8" y="67.8" width="0.9" height="0.9" fill="#a08f6d" fill-opacity="0.06"/><rect x="36.7" y="99.4" width="0.9" height="0.9" fill="#a08f6d" fill-opacity="0.11"/><rect x="45.4" y="30.3" width="0.9" height="0.9" fill="#a08f6d" fill-opacity="0.08"/><rect x="4.7" y="93.3" width="0.9" height="0.9" fill="#a08f6d" fill-opacity="0.05"/><rect x="36.4" y="92.8" width="0.9" height="0.9" fill="#a08f6d" fill-opacity="0.07"/><rect x="70.6" y="94.8" width="0.9" height="0.9" fill="#a08f6d" fill-opacity="0.11"/><rect x="94.4" y="87.9" width="0.9" height="0.9" fill="#a08f6d" fill-opacity="0.06"/><rect x="59.1" y="75.8" width="0.9" height="0.9" fill="#a08f6d" fill-opacity="0.06"/><rect x="61.0" y="41.2" width="0.9" height="0.9" fill="#a08f6d" fill-opacity="0.06"/><rect x="95.3" y="17.7" width="0.9" height="0.9" fill="#a08f6d" fill-opacity="0.08"/><rect x="86.1" y="7.7" width="0.9" height="0.9" fill="#a08f6d" fill-opacity="0.07"/><rect x="34.7" y="86.5" width="0.9" height="0.9" fill="#a08f6d" fill-opacity="0.10"/><rect x="53.9" y="110.0" width="0.9" height="0.9" fill="#a08f6d" fill-opacity="0.11"/><rect x="39.0" y="12.3" width="0.9" height="0.9" fill="#a08f6d" fill-opacity="0.06"/><rect x="38.2" y="9.4" width="0.9" height="0.9" fill="#a08f6d" fill-opacity="0.10"/><defs><radialGradient id="own_3"><stop offset="15%" stop-color="#302a22" stop-opacity="0.26"/><stop offset="100%" stop-color="#302a22" stop-opacity="0"/></radialGradient></defs><ellipse cx="64.0" cy="112.0" rx="54.0" ry="11.0" fill="url(#own_3)"/><defs><radialGradient id="own_4"><stop offset="0%" stop-color="#8f7fc4" stop-opacity="0.16"/><stop offset="100%" stop-color="#8f7fc4" stop-opacity="0"/></radialGradient></defs><circle cx="64.0" cy="66.0" r="46.0" fill="url(#own_4)"/><defs><radialGradient id="own_5"><stop offset="0%" stop-color="#8f7fc4" stop-opacity="0.14400000000000002"/><stop offset="100%" stop-color="#8f7fc4" stop-opacity="0"/></radialGradient></defs><circle cx="64.0" cy="66.0" r="20.7" fill="url(#own_5)"/><polygon points="12.8,90.0 39.2,90.0 40.0,104.0 12.0,104.0" fill="#cdc3ac" fill-opacity="0.9" /><polyline points="13.7,98.3 24.5,97.7" fill="none" stroke="#5b5343" stroke-width="1.05" stroke-opacity="0.301" stroke-linecap="round" stroke-linejoin="round"/><polyline points="21.1,102.0 36.9,102.8" fill="none" stroke="#5b5343" stroke-width="1.22" stroke-opacity="0.243" stroke-linecap="round" stroke-linejoin="round"/><polyline points="17.1,98.2 27.0,98.2" fill="none" stroke="#5b5343" stroke-width="0.98" stroke-opacity="0.334" stroke-linecap="round" stroke-linejoin="round"/><polyline points="12.9,89.9 12.0,104.0" fill="none" stroke="#3f382e" stroke-width="1.24" stroke-opacity="0.386" stroke-linecap="round" stroke-linejoin="round"/><polyline points="39.1,90.1 40.0,104.1" fill="none" stroke="#2b2621" stroke-width="1.78" stroke-opacity="0.570" stroke-linecap="round" stroke-linejoin="round"/><polyline points="39.3,90.4 39.6,103.7" fill="none" stroke="#2b2621" stroke-width="1.06" stroke-opacity="0.273" stroke-linecap="round" stroke-linejoin="round"/><path d="M 21.0 84.0 L 31.0 84.0 L 44.8 88.7 Q 34.5 91.3 26.0 90.8 Q 17.5 91.3 7.2 88.7 Z" fill="#d7cfbd" fill-opacity="0.95" /><line x1="22.7" y1="84.8" x2="14.0" y2="89.6" stroke="#837a68" stroke-opacity="0.28" stroke-width="0.7"/><line x1="24.3" y1="84.8" x2="20.0" y2="90.0" stroke="#837a68" stroke-opacity="0.28" stroke-width="0.7"/><line x1="26.0" y1="84.8" x2="26.0" y2="90.4" stroke="#837a68" stroke-opacity="0.28" stroke-width="0.7"/><line x1="27.7" y1="84.8" x2="32.0" y2="90.0" stroke="#837a68" stroke-opacity="0.28" stroke-width="0.7"/><line x1="29.3" y1="84.8" x2="38.0" y2="89.6" stroke="#837a68" stroke-opacity="0.28" stroke-width="0.7"/><polyline points="20.0,84.7 32.0,84.6" fill="none" stroke="#2b2621" stroke-width="2.39" stroke-opacity="0.782" stroke-linecap="round" stroke-linejoin="round"/><polyline points="19.8,84.9 31.7,84.3" fill="none" stroke="#2b2621" stroke-width="2.03" stroke-opacity="0.374" stroke-linecap="round" stroke-linejoin="round"/><polyline points="20.2,84.7 18.2,82.1 19.8,80.7" fill="none" stroke="#2b2621" stroke-width="1.54" stroke-opacity="0.662" stroke-linecap="round" stroke-linejoin="round"/><polyline points="32.0,84.7 33.8,82.3 32.2,80.7" fill="none" stroke="#2b2621" stroke-width="1.38" stroke-opacity="0.662" stroke-linecap="round" stroke-linejoin="round"/><polyline points="7.3,88.8 17.4,91.5 26.1,90.9 34.7,91.2 45.0,88.8" fill="none" stroke="#2b2621" stroke-width="1.86" stroke-opacity="0.718" stroke-linecap="round" stroke-linejoin="round"/><polyline points="6.8,89.2 17.8,91.5 26.0,91.3 34.2,91.6 44.8,89.2" fill="none" stroke="#2b2621" stroke-width="1.28" stroke-opacity="0.343" stroke-linecap="round" stroke-linejoin="round"/><polygon points="88.8,90.0 115.2,90.0 116.0,104.0 88.0,104.0" fill="#cdc3ac" fill-opacity="0.9" /><polyline points="92.4,97.5 100.5,97.6" fill="none" stroke="#5b5343" stroke-width="0.90" stroke-opacity="0.305" stroke-linecap="round" stroke-linejoin="round"/><polyline points="93.9,93.4 107.2,93.9" fill="none" stroke="#5b5343" stroke-width="1.16" stroke-opacity="0.295" stroke-linecap="round" stroke-linejoin="round"/><polyline points="97.9,97.3 110.1,97.1" fill="none" stroke="#5b5343" stroke-width="0.88" stroke-opacity="0.219" stroke-linecap="round" stroke-linejoin="round"/><polyline points="89.1,90.1 87.8,104.0" fill="none" stroke="#3f382e" stroke-width="1.19" stroke-opacity="0.386" stroke-linecap="round" stroke-linejoin="round"/><polyline points="115.0,90.0 115.9,104.1" fill="none" stroke="#2b2621" stroke-width="1.57" stroke-opacity="0.570" stroke-linecap="round" stroke-linejoin="round"/><polyline points="115.6,89.8 116.1,103.7" fill="none" stroke="#2b2621" stroke-width="0.91" stroke-opacity="0.273" stroke-linecap="round" stroke-linejoin="round"/><path d="M 97.0 84.0 L 107.0 84.0 L 120.8 88.7 Q 110.5 91.3 102.0 90.8 Q 93.5 91.3 83.2 88.7 Z" fill="#d7cfbd" fill-opacity="0.95" /><line x1="98.7" y1="84.8" x2="90.0" y2="89.6" stroke="#837a68" stroke-opacity="0.28" stroke-width="0.7"/><line x1="100.3" y1="84.8" x2="96.0" y2="90.0" stroke="#837a68" stroke-opacity="0.28" stroke-width="0.7"/><line x1="102.0" y1="84.8" x2="102.0" y2="90.4" stroke="#837a68" stroke-opacity="0.28" stroke-width="0.7"/><line x1="103.7" y1="84.8" x2="108.0" y2="90.0" stroke="#837a68" stroke-opacity="0.28" stroke-width="0.7"/><line x1="105.3" y1="84.8" x2="114.0" y2="89.6" stroke="#837a68" stroke-opacity="0.28" stroke-width="0.7"/><polyline points="96.0,84.3 108.1,84.5" fill="none" stroke="#2b2621" stroke-width="2.62" stroke-opacity="0.782" stroke-linecap="round" stroke-linejoin="round"/><polyline points="95.9,84.8 107.7,84.6" fill="none" stroke="#2b2621" stroke-width="1.80" stroke-opacity="0.374" stroke-linecap="round" stroke-linejoin="round"/><polyline points="96.3,84.9 94.2,82.2 95.6,80.7" fill="none" stroke="#2b2621" stroke-width="1.80" stroke-opacity="0.662" stroke-linecap="round" stroke-linejoin="round"/><polyline points="107.9,84.8 110.0,82.2 108.4,80.9" fill="none" stroke="#2b2621" stroke-width="1.61" stroke-opacity="0.662" stroke-linecap="round" stroke-linejoin="round"/><polyline points="83.2,88.7 93.8,91.1 101.9,90.7 110.3,91.0 120.9,88.9" fill="none" stroke="#2b2621" stroke-width="2.23" stroke-opacity="0.718" stroke-linecap="round" stroke-linejoin="round"/><polyline points="83.3,89.1 93.5,91.5 102.4,91.1 110.7,90.9 120.7,88.4" fill="none" stroke="#2b2621" stroke-width="1.19" stroke-opacity="0.343" stroke-linecap="round" stroke-linejoin="round"/><polygon points="32.0,78.0 96.0,78.0 98.0,104.0 30.0,104.0" fill="#d8cfba" fill-opacity="0.9" /><polyline points="44.7,94.6 52.5,93.8" fill="none" stroke="#5b5343" stroke-width="0.88" stroke-opacity="0.304" stroke-linecap="round" stroke-linejoin="round"/><polyline points="46.3,93.4 54.7,92.4" fill="none" stroke="#5b5343" stroke-width="0.98" stroke-opacity="0.220" stroke-linecap="round" stroke-linejoin="round"/><polyline points="48.5,92.7 61.3,91.6" fill="none" stroke="#5b5343" stroke-width="0.85" stroke-opacity="0.223" stroke-linecap="round" stroke-linejoin="round"/><polyline points="32.3,78.0 29.8,104.0" fill="none" stroke="#3f382e" stroke-width="1.62" stroke-opacity="0.386" stroke-linecap="round" stroke-linejoin="round"/><polyline points="96.0,78.1 97.9,104.1" fill="none" stroke="#2b2621" stroke-width="1.76" stroke-opacity="0.570" stroke-linecap="round" stroke-linejoin="round"/><polyline points="95.5,78.3 98.4,104.3" fill="none" stroke="#2b2621" stroke-width="1.18" stroke-opacity="0.273" stroke-linecap="round" stroke-linejoin="round"/><path d="M 34.0 68.0 L 94.0 68.0 L 111.4 75.6 Q 86.0 80.4 64.0 79.5 Q 42.0 80.4 16.6 75.6 Z" fill="#cfc6b0" fill-opacity="0.95" /><line x1="39.5" y1="68.8" x2="26.5" y2="76.5" stroke="#837a68" stroke-opacity="0.28" stroke-width="0.7"/><line x1="44.9" y1="68.8" x2="34.8" y2="76.9" stroke="#837a68" stroke-opacity="0.28" stroke-width="0.7"/><line x1="50.4" y1="68.8" x2="43.1" y2="77.3" stroke="#837a68" stroke-opacity="0.28" stroke-width="0.7"/><line x1="55.8" y1="68.8" x2="51.5" y2="77.8" stroke="#837a68" stroke-opacity="0.28" stroke-width="0.7"/><line x1="61.3" y1="68.8" x2="59.8" y2="78.2" stroke="#837a68" stroke-opacity="0.28" stroke-width="0.7"/><line x1="66.7" y1="68.8" x2="68.2" y2="78.2" stroke="#837a68" stroke-opacity="0.28" stroke-width="0.7"/><line x1="72.2" y1="68.8" x2="76.5" y2="77.8" stroke="#837a68" stroke-opacity="0.28" stroke-width="0.7"/><line x1="77.6" y1="68.8" x2="84.8" y2="77.3" stroke="#837a68" stroke-opacity="0.28" stroke-width="0.7"/><line x1="83.1" y1="68.8" x2="93.2" y2="76.9" stroke="#837a68" stroke-opacity="0.28" stroke-width="0.7"/><line x1="88.5" y1="68.8" x2="101.5" y2="76.5" stroke="#837a68" stroke-opacity="0.28" stroke-width="0.7"/><polyline points="33.1,68.7 94.9,68.6" fill="none" stroke="#2b2621" stroke-width="2.59" stroke-opacity="0.782" stroke-linecap="round" stroke-linejoin="round"/><polyline points="32.9,68.4 94.7,68.6" fill="none" stroke="#2b2621" stroke-width="2.08" stroke-opacity="0.374" stroke-linecap="round" stroke-linejoin="round"/><polyline points="33.1,68.6 31.2,66.0 32.9,64.6" fill="none" stroke="#2b2621" stroke-width="1.32" stroke-opacity="0.662" stroke-linecap="round" stroke-linejoin="round"/><polyline points="94.9,68.8 96.7,66.3 95.2,64.9" fill="none" stroke="#2b2621" stroke-width="1.63" stroke-opacity="0.662" stroke-linecap="round" stroke-linejoin="round"/><polyline points="16.5,75.6 42.2,80.2 63.7,79.7 86.2,80.5 111.2,75.6" fill="none" stroke="#2b2621" stroke-width="2.21" stroke-opacity="0.718" stroke-linecap="round" stroke-linejoin="round"/><polyline points="17.1,75.6 42.0,80.5 64.3,80.0 85.7,81.0 111.5,75.6" fill="none" stroke="#2b2621" stroke-width="1.64" stroke-opacity="0.343" stroke-linecap="round" stroke-linejoin="round"/><path d="M 49.0 46.0 L 79.0 46.0 L 100.0 61.9 Q 80.5 66.1 64.0 65.3 Q 47.5 66.1 28.0 61.9 Z" fill="#d7cfbd" fill-opacity="0.95" /><line x1="52.3" y1="46.8" x2="37.1" y2="62.8" stroke="#837a68" stroke-opacity="0.28" stroke-width="0.7"/><line x1="55.7" y1="46.8" x2="44.8" y2="63.2" stroke="#837a68" stroke-opacity="0.28" stroke-width="0.7"/><line x1="59.0" y1="46.8" x2="52.5" y2="63.7" stroke="#837a68" stroke-opacity="0.28" stroke-width="0.7"/><line x1="62.3" y1="46.8" x2="60.1" y2="64.2" stroke="#837a68" stroke-opacity="0.28" stroke-width="0.7"/><line x1="65.7" y1="46.8" x2="67.9" y2="64.2" stroke="#837a68" stroke-opacity="0.28" stroke-width="0.7"/><line x1="69.0" y1="46.8" x2="75.5" y2="63.7" stroke="#837a68" stroke-opacity="0.28" stroke-width="0.7"/><line x1="72.3" y1="46.8" x2="83.3" y2="63.2" stroke="#837a68" stroke-opacity="0.28" stroke-width="0.7"/><line x1="75.7" y1="46.8" x2="90.9" y2="62.8" stroke="#837a68" stroke-opacity="0.28" stroke-width="0.7"/><polyline points="48.1,46.5 79.8,46.5" fill="none" stroke="#2b2621" stroke-width="3.32" stroke-opacity="0.782" stroke-linecap="round" stroke-linejoin="round"/><polyline points="48.4,46.1 79.9,46.2" fill="none" stroke="#2b2621" stroke-width="1.87" stroke-opacity="0.374" stroke-linecap="round" stroke-linejoin="round"/><polyline points="48.0,46.8 46.2,44.1 47.7,42.7" fill="none" stroke="#2b2621" stroke-width="1.36" stroke-opacity="0.662" stroke-linecap="round" stroke-linejoin="round"/><polyline points="79.7,46.9 81.9,44.3 80.2,42.8" fill="none" stroke="#2b2621" stroke-width="1.64" stroke-opacity="0.662" stroke-linecap="round" stroke-linejoin="round"/><polyline points="27.9,61.8 47.7,66.4 63.9,65.4 80.6,66.2 99.8,61.6" fill="none" stroke="#2b2621" stroke-width="1.87" stroke-opacity="0.718" stroke-linecap="round" stroke-linejoin="round"/><polyline points="28.2,62.0 47.3,65.7 64.1,65.1 80.9,66.0 100.2,62.0" fill="none" stroke="#2b2621" stroke-width="1.64" stroke-opacity="0.343" stroke-linecap="round" stroke-linejoin="round"/><polyline points="38.0,77.9 37.6,91.2 38.1,104.0" fill="none" stroke="#3f382e" stroke-width="2.64" stroke-opacity="0.607" stroke-linecap="round" stroke-linejoin="round"/><polyline points="37.8,77.8 38.1,90.8 37.8,104.3" fill="none" stroke="#3f382e" stroke-width="1.46" stroke-opacity="0.290" stroke-linecap="round" stroke-linejoin="round"/><polyline points="50.8,78.0 51.0,90.9 50.8,103.9" fill="none" stroke="#3f382e" stroke-width="1.89" stroke-opacity="0.607" stroke-linecap="round" stroke-linejoin="round"/><polyline points="51.1,78.1 50.5,90.8 50.9,104.0" fill="none" stroke="#3f382e" stroke-width="1.70" stroke-opacity="0.290" stroke-linecap="round" stroke-linejoin="round"/><polyline points="63.9,78.0 64.0,90.9 63.9,104.0" fill="none" stroke="#3f382e" stroke-width="2.69" stroke-opacity="0.607" stroke-linecap="round" stroke-linejoin="round"/><polyline points="64.1,78.0 64.4,91.1 64.1,104.2" fill="none" stroke="#3f382e" stroke-width="1.32" stroke-opacity="0.290" stroke-linecap="round" stroke-linejoin="round"/><polyline points="77.0,78.0 76.9,91.0 77.0,103.9" fill="none" stroke="#3f382e" stroke-width="1.80" stroke-opacity="0.607" stroke-linecap="round" stroke-linejoin="round"/><polyline points="77.1,77.7 77.0,90.8 77.0,103.9" fill="none" stroke="#3f382e" stroke-width="1.66" stroke-opacity="0.290" stroke-linecap="round" stroke-linejoin="round"/><polyline points="90.0,78.2 90.2,91.1 90.1,103.9" fill="none" stroke="#3f382e" stroke-width="1.94" stroke-opacity="0.607" stroke-linecap="round" stroke-linejoin="round"/><polyline points="89.9,78.0 90.1,91.0 90.3,103.7" fill="none" stroke="#3f382e" stroke-width="1.35" stroke-opacity="0.290" stroke-linecap="round" stroke-linejoin="round"/><polygon points="57.0,104.0 71.0,104.0 71.0,82.0 57.0,82.0" fill="#57261f" fill-opacity="0.82" /><polyline points="57.1,103.9 57.0,82.1 70.8,81.8 71.1,104.0" fill="none" stroke="#b2452f" stroke-width="1.43" stroke-opacity="0.552" stroke-linecap="round" stroke-linejoin="round"/><polygon points="25.5,86.5 34.5,86.5 34.5,93.5 25.5,93.5" fill="#f2ead8" fill-opacity="0.85" /><polyline points="25.5,86.6 34.4,86.6 34.6,93.5 25.6,93.6 25.5,86.4" fill="none" stroke="#3f382e" stroke-width="0.85" stroke-opacity="0.552" stroke-linecap="round" stroke-linejoin="round"/><polyline points="29.9,86.6 30.0,93.5" fill="none" stroke="#5b5343" stroke-width="0.75" stroke-opacity="0.386" stroke-linecap="round" stroke-linejoin="round"/><polyline points="25.6,90.0 34.4,90.0" fill="none" stroke="#5b5343" stroke-width="0.87" stroke-opacity="0.386" stroke-linecap="round" stroke-linejoin="round"/><polygon points="93.5,86.5 102.5,86.5 102.5,93.5 93.5,93.5" fill="#f2ead8" fill-opacity="0.85" /><polyline points="93.5,86.6 102.4,86.6 102.5,93.5 93.6,93.5 93.5,86.6" fill="none" stroke="#3f382e" stroke-width="0.98" stroke-opacity="0.552" stroke-linecap="round" stroke-linejoin="round"/><polyline points="97.9,86.5 97.9,93.5" fill="none" stroke="#5b5343" stroke-width="0.85" stroke-opacity="0.386" stroke-linecap="round" stroke-linejoin="round"/><polyline points="93.5,90.1 102.5,90.1" fill="none" stroke="#5b5343" stroke-width="0.86" stroke-opacity="0.386" stroke-linecap="round" stroke-linejoin="round"/><polygon points="26.0,104.0 102.0,104.0 106.0,112.0 22.0,112.0" fill="#c2b8a2" fill-opacity="0.92" /><polyline points="26.2,103.9 101.8,104.1" fill="none" stroke="#2b2621" stroke-width="1.45" stroke-opacity="0.552" stroke-linecap="round" stroke-linejoin="round"/><polyline points="26.0,104.0 102.5,104.2" fill="none" stroke="#2b2621" stroke-width="1.11" stroke-opacity="0.264" stroke-linecap="round" stroke-linejoin="round"/><polyline points="22.2,112.0 106.0,111.8" fill="none" stroke="#5b5343" stroke-width="1.50" stroke-opacity="0.460" stroke-linecap="round" stroke-linejoin="round"/><polyline points="22.1,111.8 106.5,111.5" fill="none" stroke="#5b5343" stroke-width="1.11" stroke-opacity="0.220" stroke-linecap="round" stroke-linejoin="round"/><polyline points="29.7,105.2 24.3,110.2" fill="none" stroke="#5b5343" stroke-width="0.76" stroke-opacity="0.196" stroke-linecap="round" stroke-linejoin="round"/><polyline points="36.5,105.4 31.4,110.6" fill="none" stroke="#5b5343" stroke-width="1.00" stroke-opacity="0.207" stroke-linecap="round" stroke-linejoin="round"/><polyline points="43.3,105.1 39.5,110.5" fill="none" stroke="#5b5343" stroke-width="0.78" stroke-opacity="0.250" stroke-linecap="round" stroke-linejoin="round"/><polyline points="50.1,105.1 47.4,110.5" fill="none" stroke="#5b5343" stroke-width="1.04" stroke-opacity="0.298" stroke-linecap="round" stroke-linejoin="round"/><polyline points="57.3,105.3 55.1,110.3" fill="none" stroke="#5b5343" stroke-width="1.02" stroke-opacity="0.194" stroke-linecap="round" stroke-linejoin="round"/><polyline points="63.9,105.5 61.0,110.1" fill="none" stroke="#5b5343" stroke-width="1.02" stroke-opacity="0.247" stroke-linecap="round" stroke-linejoin="round"/><polyline points="70.9,105.5 70.4,110.4" fill="none" stroke="#5b5343" stroke-width="0.92" stroke-opacity="0.268" stroke-linecap="round" stroke-linejoin="round"/><polyline points="77.8,105.0 76.0,110.1" fill="none" stroke="#5b5343" stroke-width="0.85" stroke-opacity="0.195" stroke-linecap="round" stroke-linejoin="round"/><polyline points="84.7,105.1 84.2,110.4" fill="none" stroke="#5b5343" stroke-width="0.87" stroke-opacity="0.312" stroke-linecap="round" stroke-linejoin="round"/><polyline points="91.5,105.0 93.2,110.2" fill="none" stroke="#5b5343" stroke-width="1.01" stroke-opacity="0.249" stroke-linecap="round" stroke-linejoin="round"/><polyline points="98.3,105.2 100.8,110.5" fill="none" stroke="#5b5343" stroke-width="0.92" stroke-opacity="0.301" stroke-linecap="round" stroke-linejoin="round"/><polyline points="16.0,112.2 15.3,78.1" fill="none" stroke="#3f382e" stroke-width="1.29" stroke-opacity="0.644" stroke-linecap="round" stroke-linejoin="round"/><polyline points="15.8,112.4 15.3,78.1" fill="none" stroke="#3f382e" stroke-width="1.05" stroke-opacity="0.308" stroke-linecap="round" stroke-linejoin="round"/><polygon points="16.0,78.0 7.0,81.0 9.3,85.5 16.0,92.3" fill="#b2452f" fill-opacity="0.55" /><polyline points="15.9,78.1 7.1,81.1 9.2,85.4" fill="none" stroke="#b2452f" stroke-width="1.19" stroke-opacity="0.552" stroke-linecap="round" stroke-linejoin="round"/><polyline points="111.8,111.8 112.1,77.8" fill="none" stroke="#3f382e" stroke-width="1.72" stroke-opacity="0.644" stroke-linecap="round" stroke-linejoin="round"/><polyline points="111.6,112.0 112.4,77.9" fill="none" stroke="#3f382e" stroke-width="1.28" stroke-opacity="0.308" stroke-linecap="round" stroke-linejoin="round"/><polygon points="112.0,78.0 103.0,81.0 105.3,85.5 112.0,92.3" fill="#b2452f" fill-opacity="0.55" /><polyline points="112.0,78.0 102.9,81.1 105.1,85.4" fill="none" stroke="#b2452f" stroke-width="0.82" stroke-opacity="0.552" stroke-linecap="round" stroke-linejoin="round"/><polyline points="33.9,112.0 33.8,85.9" fill="none" stroke="#3f382e" stroke-width="1.87" stroke-opacity="0.644" stroke-linecap="round" stroke-linejoin="round"/><polyline points="34.0,111.9 33.9,86.2" fill="none" stroke="#3f382e" stroke-width="1.24" stroke-opacity="0.308" stroke-linecap="round" stroke-linejoin="round"/><polygon points="34.0,86.0 27.0,89.0 28.8,93.5 34.0,96.9" fill="#3f5a6b" fill-opacity="0.55" /><polyline points="33.9,86.0 26.9,88.9 28.7,93.6" fill="none" stroke="#3f5a6b" stroke-width="1.14" stroke-opacity="0.552" stroke-linecap="round" stroke-linejoin="round"/><polyline points="94.1,112.0 94.3,85.8" fill="none" stroke="#3f382e" stroke-width="1.22" stroke-opacity="0.644" stroke-linecap="round" stroke-linejoin="round"/><polyline points="94.3,111.9 94.7,85.9" fill="none" stroke="#3f382e" stroke-width="1.30" stroke-opacity="0.308" stroke-linecap="round" stroke-linejoin="round"/><polygon points="94.0,86.0 87.0,89.0 88.8,93.5 94.0,96.9" fill="#3f5a6b" fill-opacity="0.55" /><polyline points="93.9,86.1 87.1,88.9 88.7,93.6" fill="none" stroke="#3f5a6b" stroke-width="1.12" stroke-opacity="0.552" stroke-linecap="round" stroke-linejoin="round"/><rect x="106.0" y="110.0" width="10.0" height="10.0" fill="#b2452f" fill-opacity="0.78" rx="1"/><line x1="106.0" y1="115.0" x2="116.0" y2="115.0" stroke="#f2ead8" stroke-opacity="0.85" stroke-width="1"/><line x1="111.0" y1="110.0" x2="111.0" y2="120.0" stroke="#f2ead8" stroke-opacity="0.85" stroke-width="1"/>
</svg>
