<?xml version="1.0" encoding="UTF-8"?>
<svg xmlns="http://www.w3.org/2000/svg" width="256" height="256" viewBox="0 0 128 128" shape-rendering="geometricPrecision">
<rect width="128" height="128" fill="#f2ead8"/><defs><radialGradient id="own_1"><stop offset="0%" stop-color="#e2d7bd" stop-opacity="0.3"/><stop offset="100%" stop-color="#e2d7bd" stop-opacity="0"/></radialGradient></defs><circle cx="45.1" cy="86.2" r="42.0" fill="url(#own_1)"/><defs><radialGradient id="own_2"><stop offset="0%" stop-color="#fbf6ea" stop-opacity="0.34"/><stop offset="100%" stop-color="#fbf6ea" stop-opacity="0"/></radialGradient></defs><circle cx="63.3" cy="45.1" r="34.0" fill="url(#own_2)"/><line x1="124.2" y1="42.1" x2="126.6" y2="47.1" stroke="#c3b493" stroke-opacity="0.10" stroke-width="0.5"/><line x1="71.3" y1="71.8" x2="66.3" y2="86.5" stroke="#c3b493" stroke-opacity="0.10" stroke-width="0.5"/><line x1="29.9" y1="45.4" x2="27.8" y2="58.8" stroke="#c3b493" stroke-opacity="0.10" stroke-width="0.5"/><line x1="10.7" y1="35.5" x2="10.1" y2="40.5" stroke="#c3b493" stroke-opacity="0.10" stroke-width="0.5"/><line x1="116.5" y1="48.8" x2="119.9" y2="53.5" stroke="#c3b493" stroke-opacity="0.10" stroke-width="0.5"/><line x1="60.4" y1="35.6" x2="61.6" y2="51.4" stroke="#c3b493" stroke-opacity="0.10" stroke-width="0.5"/><line x1="82.3" y1="86.6" x2="77.9" y2="86.8" stroke="#c3b493" stroke-opacity="0.10" stroke-width="0.5"/><line x1="85.0" y1="25.2" x2="79.0" y2="32.1" stroke="#c3b493" stroke-opacity="0.10" stroke-width="0.5"/><line x1="95.5" y1="65.8" x2="101.3" y2="73.5" stroke="#c3b493" stroke-opacity="0.10" stroke-width="0.5"/><line x1="8.1" y1="26.8" x2="-3.0" y2="28.1" stroke="#c3b493" stroke-opacity="0.10" stroke-width="0.5"/><line x1="72.7" y1="30.2" x2="80.8" y2="31.5" stroke="#c3b493" stroke-opacity="0.10" stroke-width="0.5"/><line x1="93.1" y1="117.7" x2="105.2" y2="119.4" stroke="#c3b493" stroke-opacity="0.10" stroke-width="0.5"/><line x1="15.5" y1="97.9" x2="20.8" y2="100.3" stroke="#c3b493" stroke-opacity="0.10" stroke-width="0.5"/><line x1="18.3" y1="59.3" x2="32.5" y2="64.7" stroke="#c3b493" stroke-opacity="0.10" stroke-width="0.5"/><line x1="66.1" y1="50.0" x2="73.1" y2="53.2" stroke="#c3b493" stroke-opacity="0.10" stroke-width="0.5"/><line x1="61.4" y1="104.2" x2="68.6" y2="116.9" stroke="#c3b493" stroke-opacity="0.10" stroke-width="0.5"/><line x1="65.9" y1="119.3" x2="54.0" y2="125.6" stroke="#c3b493" stroke-opacity="0.10" stroke-width="0.5"/><line x1="30.7" y1="78.3" x2="22.6" y2="85.9" stroke="#c3b493" stroke-opacity="0.10" stroke-width="0.5"/><line x1="5.9" y1="66.1" x2="0.2" y2="75.1" stroke="#c3b493" stroke-opacity="0.10" stroke-width="0.5"/><line x1="48.7" y1="42.0" x2="58.9" y2="49.1" stroke="#c3b493" stroke-opacity="0.10" stroke-width="0.5"/><line x1="90.3" y1="80.5" x2="93.7" y2="93.0" stroke="#c3b493" stroke-opacity="0.10" stroke-width="0.5"/><line x1="81.7" y1="72.2" x2="91.0" y2="72.8" stroke="#c3b493" stroke-opacity="0.10" stroke-width="0.5"/><line x1="113.3" y1="67.2" x2="99.2" y2="70.6" stroke="#c3b493" stroke-opacity="0.10" stroke-width="0.5"/><line x1="113.0" y1="92.7" x2="106.3" y2="96.4" stroke="#c3b493" stroke-opacity="0.10" stroke-width="0.5"/><line x1="74.6" y1="53.6" x2="66.3" y2="62.1" stroke="#c3b493" stroke-opacity="0.10" stroke-width="0.5"/><line x1="73.1" y1="14.2" x2="69.4" y2="18.2" stroke="#c3b493" stroke-opacity="0.10" stroke-width="0.5"/><rect x="64.6" y="9.9" width="0.9" height="0.9" fill="#a08f6d" fill-opacity="0.11"/><rect x="29.6" y="91.8" width="0.9" height="0.9" fill="#a08f6d" fill-opacity="0.09"/><rect x="61.4" y="58.3" width="0.9" height="0.9" fill="#a08f6d" fill-opacity="0.06"/><rect x="83.5" y="93.8" width="0.9" height="0.9" fill="#a08f6d" fill-opacity="0.07"/><rect x="49.0" y="85.2" width="0.9" height="0.9" fill="#a08f6d" fill-opacity="0.10"/><rect x="47.5" y="119.6" width="0.9" height="0.9" fill="#a08f6d" fill-opacity="0.08"/><rect x="5.2" y="42.6" width="0.9" height="0.9" fill="#a08f6d" fill-opacity="0.10"/><rect x="112.7" y="63.1" width="0.9" height="0.9" fill="#a08f6d" fill-opacity="0.11"/><rect x="80.4" y="17.7" width="0.9" height="0.9" fill="#a08f6d" fill-opacity="0.09"/><rect x="126.6" y="83.8" width="0.9" height="0.9" fill="#a08f6d" fill-opacity="0.12"/><rect x="74.7" y="102.1" width="0.9" height="0.9" fill="#a08f6d" fill-opacity="0.08"/><rect x="71.9" y="65.8" width="0.9" height="0.9" fill="#a08f6d" fill-opacity="0.09"/><rect x="54.7" y="112.0" width="0.9" height="0.9" fill="#a08f6d" fill-opacity="0.09"/><rect x="64.7" y="114.1" width="0.9" height="0.9" fill="#a08f6d" fill-opacity="0.07"/><rect x="49.4" y="52.2" width="0.9" height="0.9" fill="#a08f6d" fill-opacity="0.07"/><rect x="59.6" y="71.1" width="0.9" height="0.9" fill="#a08f6d" fill-opacity="0.08"/><rect x="118.9" y="25.3" width="0.9" height="0.9" fill="#a08f6d" fill-opacity="0.07"/><rect x="103.2" y="50.9" width="0.9" height="0.9" fill="#a08f6d" fill-opacity="0.07"/><rect x="84.5" y="122.4" width="0.9" height="0.9" fill="#a08f6d" fill-opacity="0.06"/><rect x="49.1" y="113.4" width="0.9" height="0.9" fill="#a08f6d" fill-opacity="0.11"/><rect x="4.1" y="115.8" width="0.9" height="0.9" fill="#a08f6d" fill-opacity="0.11"/><rect x="47.8" y="81.7" width="0.9" height="0.9" fill="#a08f6d" fill-opacity="0.10"/><rect x="16.7" y="13.2" width="0.9" height="0.9" fill="#a08f6d" fill-opacity="0.09"/><rect x="22.6" y="127.1" width="0.9" height="0.9" fill="#a08f6d" fill-opacity="0.06"/><rect x="23.0" y="99.0" width="0.9" height="0.9" fill="#a08f6d" fill-opacity="0.05"/><rect x="10.8" y="49.1" width="0.9" height="0.9" fill="#a08f6d" fill-opacity="0.11"/><rect x="37.6" y="86.8" width="0.9" height="0.9" fill="#a08f6d" fill-opacity="0.10"/><rect x="40.0" y="15.5" width="0.9" height="0.9" fill="#a08f6d" fill-opacity="0.10"/><rect x="92.4" y="77.4" width="0.9" height="0.9" fill="#a08f6d" fill-opacity="0.08"/><rect x="37.8" y="57.6" width="0.9" height="0.9" fill="#a08f6d" fill-opacity="0.10"/><rect x="51.5" y="18.7" width="0.9" height="0.9" fill="#a08f6d" fill-opacity="0.09"/><rect x="73.0" y="51.2" width="0.9" height="0.9" fill="#a08f6d" fill-opacity="0.11"/><rect x="21.7" y="13.9" width="0.9" height="0.9" fill="#a08f6d" fill-opacity="0.09"/><rect x="97.6" y="7.8" width="0.9" height="0.9" fill="#a08f6d" fill-opacity="0.06"/><rect x="73.7" y="56.2" width="0.9" height="0.9" fill="#a08f6d" fill-opacity="0.11"/><rect x="56.0" y="112.1" width="0.9" height="0.9" fill="#a08f6d" fill-opacity="0.07"/><rect x="48.8" y="105.9" width="0.9" height="0.9" fill="#a08f6d" fill-opacity="0.10"/><rect x="90.1" y="66.5" width="0.9" height="0.9" fill="#a08f6d" fill-opacity="0.06"/><rect x="52.0" y="1.0" width="0.9" height="0.9" fill="#a08f6d" fill-opacity="0.08"/><rect x="49.8" y="74.6" width="0.9" height="0.9" fill="#a08f6d" fill-opacity="0.07"/><rect x="85.9" y="58.0" width="0.9" height="0.9" fill="#a08f6d" fill-opacity="0.09"/><rect x="115.9" y="39.1" width="0.9" height="0.9" fill="#a08f6d" fill-opacity="0.07"/><rect x="43.4" y="69.3" width="0.9" height="0.9" fill="#a08f6d" fill-opacity="0.07"/><rect x="113.4" y="34.7" width="0.9" height="0.9" fill="#a08f6d" fill-opacity="0.09"/><rect x="76.7" y="6.0" width="0.9" height="0.9" fill="#a08f6d" fill-opacity="0.05"/><rect x="67.6" y="111.2" width="0.9" height="0.9" fill="#a08f6d" fill-opacity="0.10"/><rect x="70.5" y="70.8" width="0.9" height="0.9" fill="#a08f6d" fill-opacity="0.05"/><rect x="88.1" y="58.3" width="0.9" height="0.9" fill="#a08f6d" fill-opacity="0.09"/><rect x="16.2" y="1.5" width="0.9" height="0.9" fill="#a08f6d" fill-opacity="0.09"/><rect x="10.1" y="67.0" width="0.9" height="0.9" fill="#a08f6d" fill-opacity="0.08"/><rect x="62.8" y="51.0" width="0.9" height="0.9" fill="#a08f6d" fill-opacity="0.08"/><rect x="107.3" y="61.9" width="0.9" height="0.9" fill="#a08f6d" fill-opacity="0.11"/><rect x="43.6" y="94.5" width="0.9" height="0.9" fill="#a08f6d" fill-opacity="0.10"/><rect x="67.5" y="59.7" width="0.9" height="0.9" fill="#a08f6d" fill-opacity="0.07"/><rect x="3.8" y="100.5" width="0.9" height="0.9" fill="#a08f6d" fill-opacity="0.06"/><rect x="75.8" y="35.4" width="0.9" height="0.9" fill="#a08f6d" fill-opacity="0.07"/><rect x="91.5" y="126.4" width="0.9" height="0.9" fill="#a08f6d" fill-opacity="0.08"/><rect x="91.8" y="60.2" width="0.9" height="0.9" fill="#a08f6d" fill-opacity="0.09"/><rect x="44.0" y="126.3" width="0.9" height="0.9" fill="#a08f6d" fill-opacity="0.07"/><rect x="122.6" y="25.5" width="0.9" height="0.9" fill="#a08f6d" fill-opacity="0.06"/><rect x="126.6" y="7.5" width="0.9" height="0.9" fill="#a08f6d" fill-opacity="0.09"/><rect x="35.4" y="62.9" width="0.9" height="0.9" fill="#a08f6d" fill-opacity="0.12"/><rect x="101.7" y="109.5" width="0.9" height="0.9" fill="#a08f6d" fill-opacity="0.10"/><rect x="17.8" y="122.7" width="0.9" height="0.9" fill="#a08f6d" fill-opacity="0.10"/><rect x="2.4" y="11.6" width="0.9" height="0.9" fill="#a08f6d" fill-opacity="0.08"/><rect x="70.3" y="19.5" width="0.9" height="0.9" fill="#a08f6d" fill-opacity="0.10"/><rect x="66.8" y="28.4" width="0.9" height="0.9" fill="#a08f6d" fill-opacity="0.06"/><rect x="95.1" y="86.1" width="0.9" height="0.9" fill="#a08f6d" fill-opacity="0.08"/><rect x="66.3" y="76.3" width="0.9" height="0.9" fill="#a08f6d" fill-opacity="0.06"/><rect x="70.0" y="17.5" width="0.9" height="0.9" fill="#a08f6d" fill-opacity="0.11"/><rect x="46.6" y="84.2" width="0.9" height="0.9" fill="#a08f6d" fill-opacity="0.06"/><rect x="55.0" y="60.2" width="0.9" height="0.9" fill="#a08f6d" fill-opacity="0.11"/><rect x="87.2" y="76.4" width="0.9" height="0.9" fill="#a08f6d" fill-opacity="0.07"/><rect x="78.0" y="42.7" width="0.9" height="0.9" fill="#a08f6d" fill-opacity="0.09"/><rect x="127.7" y="66.8" width="0.9" height="0.9" fill="#a08f6d" fill-opacity="0.12"/><rect x="23.6" y="124.5" width="0.9" height="0.9" fill="#a08f6d" fill-opacity="0.09"/><rect x="29.1" y="83.8" width="0.9" height="0.9" fill="#a08f6d" fill-opacity="0.10"/><rect x="120.2" y="25.3" width="0.9" height="0.9" fill="#a08f6d" fill-opacity="0.10"/><rect x="8.8" y="79.0" width="0.9" height="0.9" fill="#a08f6d" fill-opacity="0.09"/><rect x="92.8" y="33.6" width="0.9" height="0.9" fill="#a08f6d" fill-opacity="0.07"/><rect x="29.8" y="48.7" width="0.9" height="0.9" fill="#a08f6d" fill-opacity="0.10"/><rect x="26.4" y="8.1" width="0.9" height="0.9" fill="#a08f6d" fill-opacity="0.09"/><rect x="47.8" y="26.3" width="0.9" height="0.9" fill="#a08f6d" fill-opacity="0.08"/><rect x="38.2" y="5.7" width="0.9" height="0.9" fill="#a08f6d" fill-opacity="0.11"/><rect x="48.0" y="5.6" width="0.9" height="0.9" fill="#a08f6d" fill-opacity="0.05"/><rect x="112.8" y="112.5" width="0.9" height="0.9" fill="#a08f6d" fill-opacity="0.08"/><rect x="22.1" y="45.5" width="0.9" height="0.9" fill="#a08f6d" fill-opacity="0.10"/><rect x="98.9" y="33.2" width="0.9" height="0.9" fill="#a08f6d" fill-opacity="0.09"/><rect x="89.3" y="39.8" width="0.9" height="0.9" fill="#a08f6d" fill-opacity="0.10"/><rect x="12.6" y="64.7" width="0.9" height="0.9" fill="#a08f6d" fill-opacity="0.10"/><defs><radialGradient id="own_3"><stop offset="15%" stop-color="#302a22" stop-opacity="0.22"/><stop offset="100%" stop-color="#302a22" stop-opacity="0"/></radialGradient></defs><ellipse cx="64.0" cy="110.0" rx="50.0" ry="10.0" fill="url(#own_3)"/><polygon points="35.8,80.0 92.2,80.0 94.0,100.0 34.0,100.0" fill="#d6cdb8" fill-opacity="0.9" /><polyline points="36.9,86.4 50.5,85.4" fill="none" stroke="#5b5343" stroke-width="1.17" stroke-opacity="0.216" stroke-linecap="round" stroke-linejoin="round"/><polyline points="55.3,91.5 61.9,92.0" fill="none" stroke="#5b5343" stroke-width="1.16" stroke-opacity="0.244" stroke-linecap="round" stroke-linejoin="round"/><polyline points="55.4,95.1 71.5,95.5" fill="none" stroke="#5b5343" stroke-width="1.09" stroke-opacity="0.226" stroke-linecap="round" stroke-linejoin="round"/><polyline points="35.6,80.0 34.1,99.8" fill="none" stroke="#3f382e" stroke-width="1.56" stroke-opacity="0.386" stroke-linecap="round" stroke-linejoin="round"/><polyline points="92.4,79.9 93.9,100.0" fill="none" stroke="#2b2621" stroke-width="1.61" stroke-opacity="0.570" stroke-linecap="round" stroke-linejoin="round"/><polyline points="92.5,79.6 93.7,100.0" fill="none" stroke="#2b2621" stroke-width="1.10" stroke-opacity="0.273" stroke-linecap="round" stroke-linejoin="round"/><path d="M 38.0 70.0 L 90.0 70.0 L 106.6 78.2 Q 84.0 81.8 64.0 81.2 Q 44.0 81.8 21.4 78.2 Z" fill="#cfc6b0" fill-opacity="0.95" /><line x1="43.8" y1="70.8" x2="31.8" y2="79.0" stroke="#837a68" stroke-opacity="0.28" stroke-width="0.7"/><line x1="49.6" y1="70.8" x2="41.0" y2="79.4" stroke="#837a68" stroke-opacity="0.28" stroke-width="0.7"/><line x1="55.3" y1="70.8" x2="50.2" y2="79.8" stroke="#837a68" stroke-opacity="0.28" stroke-width="0.7"/><line x1="61.1" y1="70.8" x2="59.4" y2="80.2" stroke="#837a68" stroke-opacity="0.28" stroke-width="0.7"/><line x1="66.9" y1="70.8" x2="68.6" y2="80.2" stroke="#837a68" stroke-opacity="0.28" stroke-width="0.7"/><line x1="72.7" y1="70.8" x2="77.8" y2="79.8" stroke="#837a68" stroke-opacity="0.28" stroke-width="0.7"/><line x1="78.4" y1="70.8" x2="87.0" y2="79.4" stroke="#837a68" stroke-opacity="0.28" stroke-width="0.7"/><line x1="84.2" y1="70.8" x2="96.2" y2="79.0" stroke="#837a68" stroke-opacity="0.28" stroke-width="0.7"/><polyline points="37.1,70.3 91.2,70.7" fill="none" stroke="#2b2621" stroke-width="2.79" stroke-opacity="0.782" stroke-linecap="round" stroke-linejoin="round"/><polyline points="36.7,70.4 90.8,70.6" fill="none" stroke="#2b2621" stroke-width="1.99" stroke-opacity="0.374" stroke-linecap="round" stroke-linejoin="round"/><polyline points="37.3,70.7 35.3,68.1 36.7,66.8" fill="none" stroke="#2b2621" stroke-width="1.83" stroke-opacity="0.662" stroke-linecap="round" stroke-linejoin="round"/><polyline points="90.7,70.8 92.8,68.3 91.1,66.9" fill="none" stroke="#2b2621" stroke-width="1.84" stroke-opacity="0.662" stroke-linecap="round" stroke-linejoin="round"/><polyline points="21.5,78.2 43.9,82.1 63.8,81.4 84.2,82.1 106.9,77.9" fill="none" stroke="#2b2621" stroke-width="1.89" stroke-opacity="0.718" stroke-linecap="round" stroke-linejoin="round"/><polyline points="21.8,78.3 43.9,82.0 64.4,81.5 83.8,82.1 107.1,78.0" fill="none" stroke="#2b2621" stroke-width="1.81" stroke-opacity="0.343" stroke-linecap="round" stroke-linejoin="round"/><path d="M 51.0 52.0 L 77.0 52.0 L 96.6 66.2 Q 79.0 69.8 64.0 69.2 Q 49.0 69.8 31.4 66.2 Z" fill="#d7cfbd" fill-opacity="0.95" /><line x1="54.3" y1="52.8" x2="40.4" y2="67.0" stroke="#837a68" stroke-opacity="0.28" stroke-width="0.7"/><line x1="57.5" y1="52.8" x2="48.3" y2="67.5" stroke="#837a68" stroke-opacity="0.28" stroke-width="0.7"/><line x1="60.8" y1="52.8" x2="56.1" y2="67.9" stroke="#837a68" stroke-opacity="0.28" stroke-width="0.7"/><line x1="64.0" y1="52.8" x2="64.0" y2="68.4" stroke="#837a68" stroke-opacity="0.28" stroke-width="0.7"/><line x1="67.3" y1="52.8" x2="71.9" y2="67.9" stroke="#837a68" stroke-opacity="0.28" stroke-width="0.7"/><line x1="70.5" y1="52.8" x2="79.7" y2="67.5" stroke="#837a68" stroke-opacity="0.28" stroke-width="0.7"/><line x1="73.8" y1="52.8" x2="87.6" y2="67.0" stroke="#837a68" stroke-opacity="0.28" stroke-width="0.7"/><polyline points="50.0,52.4 78.1,52.6" fill="none" stroke="#2b2621" stroke-width="3.47" stroke-opacity="0.782" stroke-linecap="round" stroke-linejoin="round"/><polyline points="49.7,52.9 77.7,52.6" fill="none" stroke="#2b2621" stroke-width="2.21" stroke-opacity="0.374" stroke-linecap="round" stroke-linejoin="round"/><polyline points="50.1,52.8 48.3,50.1 49.8,48.9" fill="none" stroke="#2b2621" stroke-width="1.83" stroke-opacity="0.662" stroke-linecap="round" stroke-linejoin="round"/><polyline points="77.8,52.7 79.8,50.0 78.2,48.9" fill="none" stroke="#2b2621" stroke-width="1.65" stroke-opacity="0.662" stroke-linecap="round" stroke-linejoin="round"/><polyline points="31.6,66.1 48.7,69.6 64.0,69.2 79.1,69.7 96.7,66.3" fill="none" stroke="#2b2621" stroke-width="2.14" stroke-opacity="0.718" stroke-linecap="round" stroke-linejoin="round"/><polyline points="31.7,66.4 48.5,70.1 64.3,69.3 79.3,69.5 96.9,66.2" fill="none" stroke="#2b2621" stroke-width="1.23" stroke-opacity="0.343" stroke-linecap="round" stroke-linejoin="round"/><polyline points="40.2,79.8 39.9,90.2 40.2,99.9" fill="none" stroke="#3f382e" stroke-width="2.00" stroke-opacity="0.607" stroke-linecap="round" stroke-linejoin="round"/><polyline points="40.1,79.9 40.2,89.9 40.4,99.9" fill="none" stroke="#3f382e" stroke-width="1.26" stroke-opacity="0.290" stroke-linecap="round" stroke-linejoin="round"/><polyline points="51.1,79.9 51.0,89.8 51.0,100.0" fill="none" stroke="#3f382e" stroke-width="2.28" stroke-opacity="0.607" stroke-linecap="round" stroke-linejoin="round"/><polyline points="51.3,79.7 50.9,89.7 51.2,99.9" fill="none" stroke="#3f382e" stroke-width="1.56" stroke-opacity="0.290" stroke-linecap="round" stroke-linejoin="round"/><polyline points="63.9,79.8 64.2,90.0 64.2,99.8" fill="none" stroke="#3f382e" stroke-width="2.23" stroke-opacity="0.607" stroke-linecap="round" stroke-linejoin="round"/><polyline points="64.0,79.7 64.0,89.8 63.7,100.2" fill="none" stroke="#3f382e" stroke-width="1.60" stroke-opacity="0.290" stroke-linecap="round" stroke-linejoin="round"/><polyline points="76.8,79.9 77.2,90.1 77.1,100.0" fill="none" stroke="#3f382e" stroke-width="2.31" stroke-opacity="0.607" stroke-linecap="round" stroke-linejoin="round"/><polyline points="77.2,79.7 77.3,90.2 76.9,100.1" fill="none" stroke="#3f382e" stroke-width="1.39" stroke-opacity="0.290" stroke-linecap="round" stroke-linejoin="round"/><polyline points="87.8,79.9 87.7,90.1 88.2,99.8" fill="none" stroke="#3f382e" stroke-width="2.02" stroke-opacity="0.607" stroke-linecap="round" stroke-linejoin="round"/><polyline points="87.9,79.7 88.2,90.3 88.3,100.0" fill="none" stroke="#3f382e" stroke-width="1.42" stroke-opacity="0.290" stroke-linecap="round" stroke-linejoin="round"/><polygon points="58.0,100.0 70.0,100.0 70.0,82.0 58.0,82.0" fill="#5b2a20" fill-opacity="0.7" /><polyline points="58.1,100.2 58.2,82.1 70.0,81.9 70.0,100.2" fill="none" stroke="#b2452f" stroke-width="1.38" stroke-opacity="0.552" stroke-linecap="round" stroke-linejoin="round"/><polygon points="38.0,85.0 46.0,85.0 46.0,91.0 38.0,91.0" fill="#f2ead8" fill-opacity="0.85" /><polyline points="37.9,84.9 46.1,84.9 46.0,91.0 37.9,91.0 38.0,85.0" fill="none" stroke="#3f382e" stroke-width="0.85" stroke-opacity="0.552" stroke-linecap="round" stroke-linejoin="round"/><polyline points="42.0,84.9 41.9,90.9" fill="none" stroke="#5b5343" stroke-width="0.98" stroke-opacity="0.386" stroke-linecap="round" stroke-linejoin="round"/><polyline points="38.1,88.0 46.1,88.1" fill="none" stroke="#5b5343" stroke-width="0.68" stroke-opacity="0.386" stroke-linecap="round" stroke-linejoin="round"/><polygon points="82.0,85.0 90.0,85.0 90.0,91.0 82.0,91.0" fill="#f2ead8" fill-opacity="0.85" /><polyline points="82.1,85.1 90.0,84.9 90.0,90.9 82.0,91.0 82.0,84.9" fill="none" stroke="#3f382e" stroke-width="0.96" stroke-opacity="0.552" stroke-linecap="round" stroke-linejoin="round"/><polyline points="86.0,85.1 86.0,91.0" fill="none" stroke="#5b5343" stroke-width="0.73" stroke-opacity="0.386" stroke-linecap="round" stroke-linejoin="round"/><polyline points="82.0,88.1 90.0,88.0" fill="none" stroke="#5b5343" stroke-width="0.67" stroke-opacity="0.386" stroke-linecap="round" stroke-linejoin="round"/><polygon points="30.0,100.0 98.0,100.0 102.0,108.0 26.0,108.0" fill="#c2b8a2" fill-opacity="0.92" /><polyline points="29.9,99.9 98.1,99.8" fill="none" stroke="#2b2621" stroke-width="1.68" stroke-opacity="0.552" stroke-linecap="round" stroke-linejoin="round"/><polyline points="30.3,99.8 97.8,99.6" fill="none" stroke="#2b2621" stroke-width="1.55" stroke-opacity="0.264" stroke-linecap="round" stroke-linejoin="round"/><polyline points="25.9,108.0 101.7,107.8" fill="none" stroke="#5b5343" stroke-width="1.62" stroke-opacity="0.460" stroke-linecap="round" stroke-linejoin="round"/><polyline points="26.2,108.3 101.9,108.1" fill="none" stroke="#5b5343" stroke-width="0.94" stroke-opacity="0.220" stroke-linecap="round" stroke-linejoin="round"/><polyline points="34.0,101.4 28.8,106.4" fill="none" stroke="#5b5343" stroke-width="0.92" stroke-opacity="0.249" stroke-linecap="round" stroke-linejoin="round"/><polyline points="42.9,101.0 37.7,106.4" fill="none" stroke="#5b5343" stroke-width="0.93" stroke-opacity="0.223" stroke-linecap="round" stroke-linejoin="round"/><polyline points="51.4,101.0 47.4,106.7" fill="none" stroke="#5b5343" stroke-width="1.01" stroke-opacity="0.313" stroke-linecap="round" stroke-linejoin="round"/><polyline points="59.9,101.5 56.8,106.6" fill="none" stroke="#5b5343" stroke-width="1.00" stroke-opacity="0.280" stroke-linecap="round" stroke-linejoin="round"/><polyline points="68.0,101.5 66.6,106.4" fill="none" stroke="#5b5343" stroke-width="1.01" stroke-opacity="0.254" stroke-linecap="round" stroke-linejoin="round"/><polyline points="76.8,101.1 75.3,106.5" fill="none" stroke="#5b5343" stroke-width="1.11" stroke-opacity="0.248" stroke-linecap="round" stroke-linejoin="round"/><polyline points="85.2,101.2 85.9,106.5" fill="none" stroke="#5b5343" stroke-width="1.00" stroke-opacity="0.231" stroke-linecap="round" stroke-linejoin="round"/><polyline points="93.9,101.3 94.6,106.5" fill="none" stroke="#5b5343" stroke-width="0.74" stroke-opacity="0.311" stroke-linecap="round" stroke-linejoin="round"/><polygon points="43.3,96.0 84.7,96.0 86.0,108.0 42.0,108.0" fill="#c9bda4" fill-opacity="0.92" /><polyline points="52.8,100.8 69.9,101.1" fill="none" stroke="#5b5343" stroke-width="0.91" stroke-opacity="0.343" stroke-linecap="round" stroke-linejoin="round"/><polyline points="58.4,99.0 64.3,98.5" fill="none" stroke="#5b5343" stroke-width="1.12" stroke-opacity="0.205" stroke-linecap="round" stroke-linejoin="round"/><polyline points="43.4,96.2 41.8,108.0" fill="none" stroke="#3f382e" stroke-width="1.62" stroke-opacity="0.386" stroke-linecap="round" stroke-linejoin="round"/><polyline points="84.7,95.9 85.9,108.0" fill="none" stroke="#2b2621" stroke-width="1.35" stroke-opacity="0.570" stroke-linecap="round" stroke-linejoin="round"/><polyline points="84.9,96.0 85.7,107.8" fill="none" stroke="#2b2621" stroke-width="1.14" stroke-opacity="0.273" stroke-linecap="round" stroke-linejoin="round"/><path d="M 55.0 88.0 L 73.0 88.0 L 92.2 94.5 Q 77.0 97.5 64.0 97.0 Q 51.0 97.5 35.8 94.5 Z" fill="#d7cfbd" fill-opacity="0.95" /><line x1="57.3" y1="88.8" x2="43.6" y2="95.2" stroke="#837a68" stroke-opacity="0.28" stroke-width="0.7"/><line x1="59.5" y1="88.8" x2="50.4" y2="95.6" stroke="#837a68" stroke-opacity="0.28" stroke-width="0.7"/><line x1="61.8" y1="88.8" x2="57.2" y2="96.0" stroke="#837a68" stroke-opacity="0.28" stroke-width="0.7"/><line x1="64.0" y1="88.8" x2="64.0" y2="96.4" stroke="#837a68" stroke-opacity="0.28" stroke-width="0.7"/><line x1="66.3" y1="88.8" x2="70.8" y2="96.0" stroke="#837a68" stroke-opacity="0.28" stroke-width="0.7"/><line x1="68.5" y1="88.8" x2="77.6" y2="95.6" stroke="#837a68" stroke-opacity="0.28" stroke-width="0.7"/><line x1="70.8" y1="88.8" x2="84.4" y2="95.2" stroke="#837a68" stroke-opacity="0.28" stroke-width="0.7"/><polyline points="54.2,88.7 74.2,88.6" fill="none" stroke="#2b2621" stroke-width="2.38" stroke-opacity="0.782" stroke-linecap="round" stroke-linejoin="round"/><polyline points="53.8,88.1 74.2,88.2" fill="none" stroke="#2b2621" stroke-width="1.94" stroke-opacity="0.374" stroke-linecap="round" stroke-linejoin="round"/><polyline points="54.1,88.9 52.1,86.1 53.6,84.9" fill="none" stroke="#2b2621" stroke-width="1.49" stroke-opacity="0.662" stroke-linecap="round" stroke-linejoin="round"/><polyline points="73.7,88.9 75.9,86.2 74.1,84.7" fill="none" stroke="#2b2621" stroke-width="1.82" stroke-opacity="0.662" stroke-linecap="round" stroke-linejoin="round"/><polyline points="36.1,94.4 51.0,97.7 64.2,97.3 77.0,97.4 92.4,94.3" fill="none" stroke="#2b2621" stroke-width="1.79" stroke-opacity="0.718" stroke-linecap="round" stroke-linejoin="round"/><polyline points="36.1,94.5 50.7,97.5 64.2,97.2 76.6,97.5 92.2,94.1" fill="none" stroke="#2b2621" stroke-width="1.77" stroke-opacity="0.343" stroke-linecap="round" stroke-linejoin="round"/><polygon points="59.0,108.0 69.0,108.0 69.0,96.0 59.0,96.0" fill="#5b2a20" fill-opacity="0.7" /><polyline points="58.8,107.8 59.1,96.1 69.1,95.9 68.9,108.0" fill="none" stroke="#b2452f" stroke-width="1.16" stroke-opacity="0.552" stroke-linecap="round" stroke-linejoin="round"/><polyline points="34.2,74.0 33.8,91.0 33.8,108.1" fill="none" stroke="#2b2621" stroke-width="2.56" stroke-opacity="0.662" stroke-linecap="round" stroke-linejoin="round"/><polyline points="33.9,73.8 34.3,91.1 34.4,107.9" fill="none" stroke="#2b2621" stroke-width="1.55" stroke-opacity="0.317" stroke-linecap="round" stroke-linejoin="round"/><polyline points="94.1,73.8 94.0,91.0 93.8,108.1" fill="none" stroke="#2b2621" stroke-width="2.15" stroke-opacity="0.662" stroke-linecap="round" stroke-linejoin="round"/><polyline points="93.9,73.7 94.1,91.0 94.0,108.1" fill="none" stroke="#2b2621" stroke-width="1.79" stroke-opacity="0.317" stroke-linecap="round" stroke-linejoin="round"/><polyline points="30.1,76.1 98.0,76.2" fill="none" stroke="#2b2621" stroke-width="2.60" stroke-opacity="0.662" stroke-linecap="round" stroke-linejoin="round"/><polyline points="30.3,75.8 98.0,76.4" fill="none" stroke="#2b2621" stroke-width="2.24" stroke-opacity="0.317" stroke-linecap="round" stroke-linejoin="round"/><polyline points="34.0,71.0 93.9,70.9" fill="none" stroke="#3f382e" stroke-width="1.57" stroke-opacity="0.552" stroke-linecap="round" stroke-linejoin="round"/><polygon points="58.0,66.0 70.0,66.0 70.0,71.0 58.0,71.0" fill="#3a3128" fill-opacity="0.7" /><polygon points="60.0,104.0 68.0,104.0 66.0,100.0 62.0,100.0" fill="#6b6250" fill-opacity="0.8" /><defs><radialGradient id="own_4"><stop offset="0%" stop-color="#837a68" stop-opacity="0.2"/><stop offset="100%" stop-color="#837a68" stop-opacity="0"/></radialGradient></defs><circle cx="65.2" cy="99.0" r="3.0" fill="url(#own_4)"/><defs><radialGradient id="own_5"><stop offset="0%" stop-color="#837a68" stop-opacity="0.16000000000000003"/><stop offset="100%" stop-color="#837a68" stop-opacity="0"/></radialGradient></defs><circle cx="64.4" cy="94.3" r="3.2" fill="url(#own_5)"/><defs><radialGradient id="own_6"><stop offset="0%" stop-color="#837a68" stop-opacity="0.12000000000000002"/><stop offset="100%" stop-color="#837a68" stop-opacity="0"/></radialGradient></defs><circle cx="62.4" cy="89.7" r="2.6" fill="url(#own_6)"/><rect x="106.0" y="110.0" width="10.0" height="10.0" fill="#b2452f" fill-opacity="0.78" rx="1"/><line x1="106.0" y1="115.0" x2="116.0" y2="115.0" stroke="#f2ead8" stroke-opacity="0.85" stroke-width="1"/><line x1="111.0" y1="110.0" x2="111.0" y2="120.0" stroke="#f2ead8" stroke-opacity="0.85" stroke-width="1"/>
</svg>
